<?xml version="1.0" encoding="UTF-8"?> <svg xmlns="http://www.w3.org/2000/svg" width="282" height="82" viewBox="0 0 282 82" fill="none"><path d="M105.237 9.26183C104.984 8.88115 104.668 8.54602 104.288 8.25825C103.911 7.96958 103.48 7.7445 103.003 7.58303C102.526 7.422 102.025 7.34172 101.502 7.34172C100.545 7.34172 99.7319 7.51582 99.0652 7.86358C98.3985 8.21134 97.8557 8.67773 97.442 9.26183C97.0258 9.8473 96.7239 10.513 96.5338 11.2586C96.3443 12.0056 96.2497 12.776 96.2497 13.573C96.2497 14.3357 96.3443 15.0781 96.5338 15.7984C96.7239 16.5201 97.0258 17.1683 97.442 17.7447C97.8557 18.3212 98.3985 18.783 99.0652 19.1308C99.7319 19.4786 100.545 19.6522 101.502 19.6522C102.801 19.6522 103.816 19.2796 104.546 18.5327C105.276 17.7871 105.724 16.8034 105.887 15.5824H110C109.891 16.719 109.61 17.7447 109.161 18.6608C108.71 19.5755 108.114 20.3567 107.374 21.0004C106.634 21.6454 105.768 22.137 104.777 22.4758C103.784 22.8141 102.691 22.9846 101.502 22.9846C100.022 22.9846 98.6904 22.7432 97.5101 22.2597C96.3275 21.7757 95.3296 21.1113 94.5189 20.2629C93.7063 19.4154 93.0833 18.4181 92.6504 17.2734C92.2165 16.13 92 14.8963 92 13.573C92 12.2167 92.2165 10.9578 92.6504 9.79588C93.0833 8.63533 93.7063 7.62182 94.5189 6.75626C95.3296 5.89205 96.3275 5.21412 97.5101 4.72202C98.6904 4.23038 100.022 3.98456 101.502 3.98456C102.565 3.98456 103.572 4.12844 104.519 4.41666C105.466 4.70488 106.315 5.12481 107.063 5.67554C107.812 6.22717 108.43 6.90961 108.917 7.72285C109.404 8.537 109.71 9.47022 109.837 10.5212H105.724C105.651 10.0638 105.488 9.64387 105.237 9.26183Z" fill="white"></path><path d="M114.872 17.567C114.979 18.074 115.158 18.5286 115.409 18.9316C115.664 19.335 115.997 19.6572 116.416 19.8963C116.835 20.1368 117.36 20.2564 117.988 20.2564C118.616 20.2564 119.143 20.1368 119.571 19.8963C119.997 19.6572 120.339 19.335 120.591 18.9316C120.845 18.5286 121.023 18.074 121.127 17.567C121.233 17.0618 121.284 16.542 121.284 16.0099C121.284 15.4787 121.233 14.9561 121.127 14.4409C121.023 13.9261 120.845 13.4716 120.591 13.0768C120.339 12.6825 119.997 12.3608 119.571 12.112C119.143 11.8633 118.616 11.7383 117.988 11.7383C117.36 11.7383 116.835 11.8633 116.416 12.112C115.997 12.3608 115.664 12.6825 115.409 13.0768C115.158 13.4716 114.979 13.9261 114.872 14.4409C114.769 14.9561 114.718 15.4787 114.718 16.0099C114.718 16.542 114.769 17.0618 114.872 17.567ZM111.499 13.1151C111.828 12.2499 112.301 11.5115 112.91 10.9018C113.522 10.293 114.254 9.82108 115.108 9.48656C115.965 9.15205 116.922 8.98456 117.988 8.98456C119.052 8.98456 120.016 9.15205 120.88 9.48656C121.743 9.82108 122.48 10.293 123.09 10.9018C123.701 11.5115 124.172 12.2499 124.503 13.1151C124.835 13.9818 125 14.9465 125 16.0099C125 17.0746 124.835 18.0348 124.503 18.8932C124.172 19.7507 123.701 20.4841 123.09 21.0929C122.48 21.7026 121.743 22.1699 120.88 22.4962C120.016 22.8216 119.052 22.9846 117.988 22.9846C116.922 22.9846 115.965 22.8216 115.108 22.4962C114.254 22.1699 113.522 21.7026 112.91 21.0929C112.301 20.4841 111.828 19.7507 111.499 18.8932C111.167 18.0348 111 17.0746 111 16.0099C111 14.9465 111.167 13.9818 111.499 13.1151Z" fill="white"></path><path d="M130.617 9.35438V11.2521H130.699C131.181 10.4615 131.805 9.88551 132.574 9.52503C133.343 9.16596 134.129 8.98456 134.934 8.98456C135.951 8.98456 136.787 9.12061 137.438 9.39319C138.091 9.66623 138.605 10.044 138.98 10.5265C139.356 11.0113 139.619 11.5995 139.771 12.2938C139.923 12.9886 140 13.7567 140 14.6006V22.9846H136.192V15.2856C136.192 14.1612 136.014 13.3219 135.657 12.7684C135.3 12.2148 134.664 11.9371 133.753 11.9371C132.716 11.9371 131.967 12.2405 131.502 12.8478C131.037 13.4533 130.805 14.4515 130.805 15.8392V22.9846H127V9.35438H130.617Z" fill="white"></path><path d="M145.619 19.3437C145.778 19.6271 145.982 19.858 146.233 20.0378C146.483 20.2181 146.771 20.3513 147.098 20.4367C147.422 20.5234 147.762 20.5654 148.111 20.5654C148.364 20.5654 148.625 20.5361 148.902 20.4759C149.177 20.4161 149.427 20.3212 149.652 20.1925C149.877 20.0643 150.066 19.8931 150.218 19.6777C150.366 19.4637 150.443 19.1931 150.443 18.8668C150.443 18.3182 150.087 17.9066 149.377 17.6323C148.668 17.358 147.676 17.0824 146.408 16.8081C145.89 16.688 145.386 16.547 144.892 16.3837C144.399 16.2207 143.962 16.0067 143.577 15.7406C143.193 15.4746 142.885 15.14 142.651 14.7362C142.416 14.3336 142.299 13.8403 142.299 13.2575C142.299 12.3991 142.464 11.6954 142.788 11.1473C143.115 10.5974 143.543 10.1647 144.079 9.84618C144.613 9.52946 145.214 9.3063 145.883 9.1776C146.55 9.04936 147.235 8.98456 147.935 8.98456C148.638 8.98456 149.319 9.05393 149.979 9.19038C150.639 9.3282 151.227 9.55958 151.745 9.88589C152.263 10.2122 152.693 10.6448 153.036 11.1852C153.378 11.7255 153.581 12.4082 153.649 13.2311H150.267C150.218 12.5273 149.956 12.0518 149.49 11.8031C149.022 11.5544 148.472 11.4293 147.837 11.4293C147.636 11.4293 147.42 11.4421 147.185 11.4686C146.951 11.4941 146.737 11.5493 146.545 11.6351C146.354 11.7219 146.192 11.846 146.057 12.0089C145.924 12.1723 145.857 12.3909 145.857 12.6652C145.857 12.9915 145.974 13.2575 146.208 13.462C146.442 13.6683 146.747 13.8357 147.122 13.9644C147.499 14.0927 147.929 14.2095 148.413 14.3113C148.897 14.4144 149.391 14.5267 149.891 14.6472C150.409 14.7672 150.913 14.9132 151.407 15.0844C151.898 15.2555 152.338 15.4837 152.723 15.7657C153.105 16.0491 153.414 16.401 153.649 16.8209C153.883 17.2421 154 17.7605 154 18.3784C154 19.2533 153.829 19.9867 153.486 20.5781C153.144 21.17 152.698 21.6469 152.146 22.0066C151.594 22.3666 150.963 22.6199 150.254 22.766C149.544 22.9115 148.821 22.9846 148.086 22.9846C147.337 22.9846 146.599 22.907 145.883 22.7532C145.165 22.5994 144.525 22.3411 143.966 21.9815C143.405 21.6205 142.946 21.1449 142.588 20.5526C142.23 19.9611 142.033 19.2186 142 18.3264H145.381C145.381 18.7221 145.46 19.0598 145.619 19.3437Z" fill="white"></path><path d="M159.873 17.567C159.979 18.074 160.158 18.5286 160.409 18.9316C160.664 19.335 160.998 19.6572 161.417 19.8963C161.835 20.1368 162.36 20.2564 162.988 20.2564C163.617 20.2564 164.144 20.1368 164.572 19.8963C164.997 19.6572 165.339 19.335 165.591 18.9316C165.845 18.5286 166.023 18.074 166.127 17.567C166.232 17.0618 166.285 16.542 166.285 16.0099C166.285 15.4787 166.232 14.9561 166.127 14.4409C166.023 13.9261 165.845 13.4716 165.591 13.0768C165.339 12.6825 164.997 12.3608 164.572 12.112C164.144 11.8633 163.617 11.7383 162.988 11.7383C162.36 11.7383 161.835 11.8633 161.417 12.112C160.998 12.3608 160.664 12.6825 160.409 13.0768C160.158 13.4716 159.979 13.9261 159.873 14.4409C159.769 14.9561 159.717 15.4787 159.717 16.0099C159.717 16.542 159.769 17.0618 159.873 17.567ZM156.499 13.1151C156.828 12.2499 157.301 11.5115 157.91 10.9018C158.522 10.293 159.254 9.82108 160.108 9.48656C160.965 9.15205 161.922 8.98456 162.988 8.98456C164.052 8.98456 165.016 9.15205 165.88 9.48656C166.743 9.82108 167.48 10.293 168.089 10.9018C168.701 11.5115 169.172 12.2499 169.503 13.1151C169.835 13.9818 170 14.9465 170 16.0099C170 17.0746 169.835 18.0348 169.503 18.8932C169.172 19.7507 168.701 20.4841 168.089 21.0929C167.48 21.7026 166.743 22.1699 165.88 22.4962C165.016 22.8216 164.052 22.9846 162.988 22.9846C161.922 22.9846 160.965 22.8216 160.108 22.4962C159.254 22.1699 158.522 21.7026 157.91 21.0929C157.301 20.4841 156.828 19.7507 156.499 18.8932C156.167 18.0348 156 17.0746 156 16.0099C156 14.9465 156.167 13.9818 156.499 13.1151Z" fill="white"></path><path d="M175.243 9.35438V11.8852H175.29C175.45 11.463 175.669 11.0721 175.941 10.7116C176.213 10.3512 176.524 10.044 176.876 9.78919C177.228 9.53438 177.606 9.33662 178.006 9.19542C178.406 9.05562 178.822 8.98456 179.255 8.98456C179.479 8.98456 179.728 9.02944 180 9.11734V12.5972C179.84 12.5622 179.648 12.5308 179.424 12.5051C179.199 12.4775 178.983 12.4649 178.775 12.4649C178.151 12.4649 177.621 12.5795 177.189 12.8072C176.758 13.0358 176.409 13.3476 176.144 13.7436C175.88 14.1396 175.692 14.6006 175.58 15.128C175.467 15.6554 175.411 16.2272 175.411 16.842V22.9846H172V9.35438H175.243Z" fill="white"></path><path d="M187.22 11.7383C186.598 11.7383 186.074 11.8715 185.655 12.1376C185.233 12.4037 184.89 12.7469 184.626 13.1672C184.359 13.587 184.171 14.0512 184.063 14.5568C183.952 15.0625 183.898 15.5645 183.898 16.0619C183.898 16.542 183.952 17.0317 184.063 17.5291C184.171 18.0266 184.351 18.477 184.599 18.8795C184.845 19.2834 185.179 19.6129 185.601 19.8708C186.02 20.1277 186.533 20.2564 187.136 20.2564C188.069 20.2564 188.787 20.0122 189.291 19.5239C189.794 19.0342 190.11 18.3784 190.238 17.5547H194C193.743 19.3213 193.01 20.668 191.803 21.5949C190.596 22.5218 189.049 22.9846 187.163 22.9846C186.102 22.9846 185.129 22.818 184.241 22.4821C183.352 22.148 182.599 21.6807 181.977 21.0801C181.353 20.4796 180.869 19.7631 180.521 18.9316C180.173 18.0996 180 17.1855 180 16.1906C180 15.1606 180.161 14.205 180.479 13.321C180.8 12.4384 181.271 11.6744 181.894 11.0314C182.515 10.3879 183.275 9.88588 184.171 9.5249C185.067 9.16482 186.094 8.98456 187.247 8.98456C188.089 8.98456 188.898 9.08724 189.676 9.29352C190.453 9.49934 191.149 9.81287 191.761 10.2332C192.376 10.6544 192.874 11.177 193.257 11.8031C193.642 12.4292 193.861 13.1717 193.916 14.0292H190.1C189.845 12.5018 188.883 11.7383 187.22 11.7383Z" fill="white"></path><path d="M199 9.22734V22.9846H196V9.22734H199ZM196 7.09766V3.98456H199V7.09766H196Z" fill="white"></path><path d="M102.195 43.2423C102.087 42.7288 101.905 42.2755 101.649 41.883C101.391 41.4918 101.058 41.1734 100.651 40.9301C100.242 40.6859 99.7278 40.5635 99.1048 40.5635C98.4856 40.5635 97.9616 40.6859 97.535 40.9301C97.1092 41.1734 96.7694 41.4965 96.5108 41.8969C96.2545 42.2978 96.0681 42.7548 95.9534 43.2683C95.8363 43.7832 95.7787 44.3189 95.7787 44.876C95.7787 45.3988 95.8405 45.9216 95.9651 46.4444C96.0897 46.9671 96.2885 47.4338 96.5636 47.8426C96.8388 48.2514 97.1857 48.5828 97.6025 48.8353C98.0187 49.0884 98.5214 49.214 99.1048 49.214C99.7278 49.214 100.247 49.0926 100.663 48.8483C101.08 48.6055 101.412 48.2783 101.661 47.8686C101.91 47.4593 102.087 46.9931 102.195 46.4703C102.3 45.9475 102.353 45.4081 102.353 44.8501C102.353 44.293 102.3 43.7572 102.195 43.2423ZM102.353 49.9198C101.91 50.6521 101.328 51.1786 100.61 51.5016C99.8925 51.8233 99.0788 51.9846 98.1745 51.9846C97.1451 51.9846 96.2403 51.7885 95.4606 51.3969C94.6799 51.0043 94.0362 50.4732 93.5311 49.8026C93.0237 49.1315 92.6433 48.3608 92.3852 47.489C92.1289 46.6182 92 45.7121 92 44.7713C92 43.8652 92.1289 42.9897 92.3852 42.1448C92.6433 41.3 93.0237 40.5552 93.5311 39.91C94.0362 39.2663 94.6705 38.7472 95.4342 38.3556C96.195 37.963 97.0828 37.767 98.0952 37.767C98.9113 37.767 99.6867 37.9371 100.424 38.2768C101.161 38.6165 101.74 39.118 102.166 39.7798H102.221V32.9846H106V51.6448H102.408V49.9198H102.353Z" fill="white"></path><path d="M111.998 32.9846V37.2743C112.015 37.8908 111.927 38.4705 111.732 39.0124C111.534 39.5543 111.256 40.0306 110.898 40.4418C110.544 40.854 110.116 41.1955 109.618 41.4655C109.122 41.7365 108.583 41.9105 108 41.9846V40.134C108.714 39.8909 109.2 39.5315 109.463 39.0537C109.727 38.5774 109.858 37.9942 109.858 37.3021H108V32.9846H111.998Z" fill="white"></path><path d="M128.793 32.9846V36.4974H119.055V40.5684H127.992V43.8155H119.055V48.4722H129V51.9846H115V32.9846H128.793Z" fill="white"></path><path d="M141.194 43.2423C141.089 42.7288 140.904 42.2755 140.649 41.883C140.39 41.4918 140.057 41.1734 139.651 40.9301C139.241 40.6859 138.726 40.5635 138.106 40.5635C137.484 40.5635 136.963 40.6859 136.536 40.9301C136.11 41.1734 135.768 41.4965 135.512 41.8969C135.253 42.2978 135.067 42.7548 134.952 43.2683C134.837 43.7832 134.779 44.3189 134.779 44.876C134.779 45.3988 134.841 45.9216 134.966 46.4444C135.088 46.9671 135.289 47.4338 135.565 47.8426C135.84 48.2514 136.184 48.5828 136.603 48.8353C137.02 49.0884 137.52 49.214 138.106 49.214C138.726 49.214 139.246 49.0926 139.665 48.8483C140.081 48.6055 140.414 48.2783 140.663 47.8686C140.91 47.4593 141.089 46.9931 141.194 46.4703C141.302 45.9475 141.355 45.4081 141.355 44.8501C141.355 44.293 141.302 43.7572 141.194 43.2423ZM141.355 49.9198C140.91 50.6521 140.33 51.1786 139.61 51.5016C138.891 51.8233 138.08 51.9846 137.176 51.9846C136.146 51.9846 135.242 51.7885 134.459 51.3969C133.678 51.0043 133.034 50.4732 132.53 49.8026C132.024 49.1315 131.641 48.3608 131.385 47.489C131.127 46.6182 131 45.7121 131 44.7713C131 43.8652 131.127 42.9897 131.385 42.1448C131.641 41.3 132.024 40.5552 132.53 39.91C133.034 39.2663 133.669 38.7472 134.432 38.3556C135.196 37.963 136.084 37.767 137.094 37.767C137.91 37.767 138.688 37.9371 139.423 38.2768C140.16 38.6165 140.742 39.118 141.168 39.7798H141.221V32.9846H145V51.6448H141.408V49.9198H141.355Z" fill="white"></path><path d="M156.382 51.6657V49.9001H156.3C155.819 50.6357 155.194 51.1672 154.426 51.4939C153.657 51.8214 152.871 51.9846 152.066 51.9846C151.049 51.9846 150.213 51.8619 149.56 51.6174C148.909 51.3712 148.396 51.0241 148.02 50.5739C147.644 50.1254 147.381 49.5769 147.229 48.931C147.077 48.2846 147 47.5699 147 46.7847V38.9846H150.806V46.1462C150.806 47.1941 150.986 47.9749 151.343 48.4894C151.7 49.0045 152.334 49.2615 153.247 49.2615C154.281 49.2615 155.033 48.9792 155.498 48.4159C155.961 47.8513 156.195 46.9235 156.195 45.6311V38.9846H160V51.6657H156.382Z" fill="white"></path><path d="M168.704 40.7383C168.126 40.7383 167.643 40.8715 167.251 41.1376C166.861 41.4037 166.543 41.7469 166.295 42.1672C166.05 42.587 165.875 43.0512 165.772 43.5568C165.672 44.0625 165.621 44.5645 165.621 45.0619C165.621 45.542 165.672 46.0317 165.772 46.5291C165.875 47.0266 166.04 47.477 166.27 47.8795C166.499 48.2834 166.808 48.6129 167.2 48.8708C167.592 49.1277 168.067 49.2564 168.628 49.2564C169.495 49.2564 170.161 49.0122 170.629 48.5239C171.097 48.0342 171.39 47.3784 171.509 46.5547H175C174.761 48.3213 174.083 49.668 172.96 50.5949C171.839 51.5218 170.405 51.9846 168.653 51.9846C167.668 51.9846 166.763 51.818 165.94 51.4821C165.115 51.148 164.414 50.6807 163.836 50.0801C163.258 49.4796 162.807 48.7631 162.486 47.9316C162.163 47.0996 162 46.1855 162 45.1906C162 44.1606 162.149 43.205 162.447 42.321C162.745 41.4384 163.182 40.6744 163.76 40.0314C164.338 39.3879 165.041 38.8859 165.875 38.5249C166.708 38.1648 167.659 37.9846 168.729 37.9846C169.51 37.9846 170.262 38.0872 170.987 38.2935C171.709 38.4993 172.353 38.8129 172.924 39.2332C173.492 39.6544 173.955 40.177 174.312 40.8031C174.67 41.4292 174.873 42.1717 174.924 43.0292H171.381C171.142 41.5018 170.251 40.7383 168.704 40.7383Z" fill="white"></path><path d="M184.872 45.1395C184.719 45.2773 184.524 45.3837 184.292 45.4612C184.06 45.5374 183.81 45.6023 183.545 45.6543C183.279 45.7054 182.997 45.7483 182.705 45.783C182.413 45.8177 182.121 45.8592 181.829 45.9112C181.552 45.9623 181.283 46.0317 181.017 46.1175C180.75 46.2028 180.518 46.3187 180.319 46.4643C180.121 46.6099 179.962 46.7952 179.843 47.0174C179.723 47.2406 179.662 47.524 179.662 47.8668C179.662 48.1931 179.723 48.4682 179.843 48.6905C179.962 48.9137 180.126 49.0898 180.332 49.2181C180.539 49.3463 180.78 49.4367 181.054 49.4887C181.33 49.5398 181.613 49.5654 181.905 49.5654C182.629 49.5654 183.188 49.4462 183.582 49.2053C183.979 48.9648 184.271 48.6777 184.459 48.3437C184.649 48.0091 184.765 47.6701 184.809 47.3264C184.851 46.9841 184.872 46.7085 184.872 46.5036V45.1395ZM176.413 42.4369C176.464 41.5794 176.677 40.8665 177.058 40.3011C177.435 39.7352 177.916 39.2806 178.5 38.9365C179.085 38.5943 179.743 38.3501 180.474 38.2032C181.205 38.0585 181.94 37.9846 182.68 37.9846C183.35 37.9846 184.03 38.032 184.719 38.1269C185.405 38.2205 186.034 38.4058 186.599 38.6801C187.168 38.9539 187.631 39.3359 187.993 39.8255C188.355 40.3134 188.536 40.9614 188.536 41.7678V48.6905C188.536 49.2911 188.569 49.8661 188.638 50.4147C188.708 50.9641 188.826 51.3762 189 51.65H185.284C185.217 51.4442 185.159 51.2347 185.117 51.0193C185.073 50.8058 185.043 50.5867 185.027 50.3635C184.443 50.9641 183.754 51.384 182.962 51.6245C182.172 51.8641 181.365 51.9846 180.539 51.9846C179.904 51.9846 179.31 51.907 178.76 51.7532C178.208 51.5994 177.728 51.3584 177.315 51.0321C176.902 50.7072 176.58 50.2951 176.348 49.7976C176.116 49.3002 176 48.7078 176 48.0215C176 47.2675 176.132 46.6446 176.399 46.1554C176.666 45.6671 177.009 45.2773 177.431 44.9848C177.851 44.6932 178.333 44.4746 178.876 44.3285C179.416 44.1825 179.962 44.067 180.513 43.9812C181.063 43.8959 181.606 43.8265 182.137 43.7754C182.671 43.7234 183.144 43.6472 183.557 43.544C183.969 43.4409 184.296 43.2907 184.538 43.0927C184.777 42.896 184.89 42.6094 184.872 42.2311C184.872 41.8363 184.809 41.5237 184.679 41.2914C184.549 41.06 184.378 40.8807 184.162 40.7511C183.949 40.6228 183.698 40.537 183.415 40.4941C183.132 40.4512 182.826 40.4293 182.499 40.4293C181.777 40.4293 181.209 40.5845 180.797 40.8934C180.384 41.2024 180.142 41.7158 180.075 42.4369H176.413Z" fill="white"></path><path d="M197.704 40.7383C197.126 40.7383 196.643 40.8715 196.251 41.1376C195.861 41.4037 195.543 41.7469 195.295 42.1672C195.05 42.587 194.876 43.0512 194.773 43.5568C194.672 44.0625 194.621 44.5645 194.621 45.0619C194.621 45.542 194.672 46.0317 194.773 46.5291C194.876 47.0266 195.041 47.477 195.271 47.8795C195.499 48.2834 195.809 48.6129 196.201 48.8708C196.593 49.1277 197.067 49.2564 197.628 49.2564C198.495 49.2564 199.162 49.0122 199.629 48.5239C200.097 48.0342 200.39 47.3784 200.509 46.5547H204C203.762 48.3213 203.083 49.668 201.96 50.5949C200.84 51.5218 199.405 51.9846 197.654 51.9846C196.668 51.9846 195.763 51.818 194.94 51.4821C194.115 51.148 193.414 50.6807 192.836 50.0801C192.258 49.4796 191.807 48.7631 191.486 47.9316C191.163 47.0996 191 46.1855 191 45.1906C191 44.1606 191.149 43.205 191.447 42.321C191.745 41.4384 192.183 40.6744 192.761 40.0314C193.338 39.3879 194.042 38.8859 194.876 38.5249C195.708 38.1648 196.659 37.9846 197.729 37.9846C198.511 37.9846 199.263 38.0872 199.987 38.2935C200.709 38.4993 201.353 38.8129 201.924 39.2332C202.492 39.6544 202.955 40.177 203.313 40.8031C203.67 41.4292 203.874 42.1717 203.925 43.0292H200.381C200.143 41.5018 199.251 40.7383 197.704 40.7383Z" fill="white"></path><path d="M210 38.2273V51.9846H206V38.2273H210ZM206 36.0977V32.9846H210V36.0977H206Z" fill="white"></path><path d="M219.797 31.9846L217.023 36.4207H219.614L223.88 31.9846H219.797ZM215.872 46.7084C215.976 47.2022 216.155 47.6449 216.409 48.0374C216.661 48.4303 216.997 48.744 217.417 48.9769C217.835 49.2112 218.357 49.3276 218.986 49.3276C219.614 49.3276 220.141 49.2112 220.569 48.9769C220.997 48.744 221.336 48.4303 221.591 48.0374C221.842 47.6449 222.021 47.2022 222.127 46.7084C222.231 46.2164 222.282 45.7102 222.282 45.192C222.282 44.6746 222.231 44.1657 222.127 43.6639C222.021 43.1626 221.842 42.7199 221.591 42.3355C221.336 41.9514 220.997 41.6381 220.569 41.3959C220.141 41.1537 219.614 41.0319 218.986 41.0319C218.357 41.0319 217.835 41.1537 217.417 41.3959C216.997 41.6381 216.661 41.9514 216.409 42.3355C216.155 42.7199 215.976 43.1626 215.872 43.6639C215.767 44.1657 215.716 44.6746 215.716 45.192C215.716 45.7102 215.767 46.2164 215.872 46.7084ZM212.496 42.3728C212.828 41.5301 213.299 40.811 213.91 40.2172C214.52 39.6243 215.254 39.1647 216.108 38.8389C216.962 38.5131 217.922 38.35 218.986 38.35C220.049 38.35 221.014 38.5131 221.878 38.8389C222.741 39.1647 223.478 39.6243 224.089 40.2172C224.699 40.811 225.169 41.5301 225.501 42.3728C225.832 43.2168 226 44.1564 226 45.192C226 46.2289 225.832 47.164 225.501 48C225.169 48.8352 224.699 49.5494 224.089 50.1423C223.478 50.7361 222.741 51.1912 221.878 51.509C221.014 51.8259 220.049 51.9846 218.986 51.9846C217.922 51.9846 216.962 51.8259 216.108 51.509C215.254 51.1912 214.52 50.7361 213.91 50.1423C213.299 49.5494 212.828 48.8352 212.496 48C212.164 47.164 212 46.2289 212 45.192C212 44.1564 212.164 43.2168 212.496 42.3728Z" fill="white"></path><path d="M102.194 73.2426C102.089 72.729 101.904 72.2753 101.649 71.8827C101.39 71.4916 101.057 71.1732 100.65 70.9298C100.241 70.6856 99.7263 70.5632 99.1064 70.5632C98.4838 70.5632 97.9622 70.6856 97.5364 70.9298C97.1101 71.1732 96.7683 71.4962 96.512 71.8971C96.2533 72.2975 96.0664 72.755 95.9517 73.2685C95.8369 73.783 95.7793 74.3187 95.7793 74.8758C95.7793 75.3986 95.8417 75.9214 95.9658 76.4442C96.0881 76.967 96.2892 77.4333 96.5644 77.8425C96.8396 78.2513 97.1842 78.5827 97.6034 78.8353C98.0198 79.0879 98.5201 79.2139 99.1064 79.2139C99.7263 79.2139 100.246 79.093 100.665 78.8482C101.081 78.6049 101.414 78.2786 101.663 77.8685C101.91 77.4597 102.089 76.993 102.194 76.4702C102.302 75.9469 102.355 75.4079 102.355 74.8499C102.355 74.2933 102.302 73.757 102.194 73.2426ZM102.355 79.9198C101.91 80.6521 101.33 81.1786 100.609 81.5016C99.8915 81.8237 99.08 81.9846 98.1755 81.9846C97.146 81.9846 96.241 81.788 95.4583 81.3969C94.6785 81.0048 94.0346 80.4736 93.529 79.8025C93.0244 79.1314 92.6411 78.3607 92.3847 77.4889C92.127 76.618 92 75.7124 92 74.7711C92 73.865 92.127 72.99 92.3847 72.1451C92.6411 71.3002 93.0244 70.5554 93.529 69.9102C94.0346 69.266 94.6686 68.7469 95.4324 68.3557C96.1962 67.9632 97.0841 67.7671 98.0939 67.7671C98.9105 67.7671 99.688 67.9372 100.423 68.2769C101.16 68.6167 101.742 69.1181 102.168 69.7795H102.22V62.9846H106V81.6448H102.407V79.9198H102.355Z" fill="white"></path><path d="M116.504 71.459C116.076 70.9789 115.425 70.7379 114.551 70.7379C113.98 70.7379 113.506 70.8374 113.128 71.0341C112.75 71.2322 112.448 71.4763 112.221 71.768C111.992 72.0596 111.834 72.3681 111.741 72.6944C111.648 73.0212 111.594 73.3115 111.578 73.5693H117.399C117.231 72.6429 116.932 71.9391 116.504 71.459ZM112.459 78.459C112.996 78.9911 113.772 79.2563 114.777 79.2563C115.5 79.2563 116.121 79.0719 116.642 78.7032C117.163 78.3353 117.483 77.9442 117.6 77.5321H120.751C120.247 79.1276 119.475 80.2695 118.433 80.9545C117.39 81.6418 116.13 81.9846 114.653 81.9846C113.626 81.9846 112.704 81.818 111.879 81.4825C111.057 81.148 110.359 80.6725 109.788 80.0545C109.216 79.4366 108.777 78.6995 108.467 77.8411C108.154 76.9835 108 76.0393 108 75.0101C108 74.0161 108.158 73.0892 108.478 72.2307C108.797 71.3732 109.251 70.6316 109.84 70.0045C110.427 69.3784 111.129 68.8855 111.942 68.5245C112.758 68.1648 113.66 67.9846 114.653 67.9846C115.761 67.9846 116.726 68.2032 117.551 68.6413C118.374 69.0785 119.048 69.6668 119.579 70.4038C120.107 71.1418 120.49 71.9829 120.726 72.9263C120.962 73.8701 121.045 74.8559 120.977 75.8859H111.578C111.628 77.0693 111.922 77.9278 112.459 78.459Z" fill="white"></path><path d="M138.151 78.7378C138.536 78.7378 138.904 78.6982 139.256 78.618C139.608 78.5391 139.917 78.4047 140.183 78.2192C140.451 78.0328 140.663 77.7803 140.823 77.4608C140.981 77.1414 141.063 76.7336 141.063 76.2372C141.063 75.2608 140.803 74.5647 140.284 74.148C139.766 73.7309 139.08 73.5228 138.227 73.5228H133.937V78.7378H138.151ZM137.925 70.6753C138.629 70.6753 139.206 70.4978 139.658 70.1425C140.108 69.7885 140.334 69.2119 140.334 68.4125C140.334 67.9698 140.259 67.6064 140.108 67.3214C139.957 67.0378 139.756 66.8165 139.506 66.656C139.256 66.497 138.967 66.387 138.64 66.3238C138.316 66.2624 137.977 66.2318 137.625 66.2318H133.937V70.6753H137.925ZM138.428 62.9846C139.281 62.9846 140.059 63.0648 140.76 63.2238C141.462 63.3838 142.064 63.6462 142.567 64.0086C143.068 64.3724 143.458 64.8566 143.733 65.4597C144.008 66.0628 144.146 66.808 144.146 67.6947C144.146 68.6531 143.942 69.4511 143.532 70.0901C143.122 70.7276 142.517 71.2519 141.714 71.6597C142.817 71.9971 143.64 72.587 144.184 73.4293C144.727 74.2726 145 75.2882 145 76.4764C145 77.4344 144.824 78.264 144.472 78.9639C144.121 79.6647 143.649 80.238 143.056 80.6807C142.461 81.1243 141.784 81.4522 141.024 81.6651C140.262 81.8779 139.481 81.9846 138.678 81.9846H130V62.9846H138.428Z" fill="white"></path><path d="M155.874 75.1397C155.718 75.2771 155.526 75.3834 155.294 75.461C155.06 75.5377 154.812 75.602 154.545 75.6545C154.278 75.7052 153.999 75.7481 153.707 75.7823C153.413 75.8175 153.121 75.859 152.831 75.911C152.554 75.9621 152.283 76.0315 152.016 76.1168C151.75 76.2026 151.518 76.3186 151.321 76.4642C151.124 76.6097 150.964 76.795 150.843 77.0173C150.722 77.2405 150.662 77.5239 150.662 77.8666C150.662 78.1929 150.722 78.4681 150.843 78.6904C150.964 78.9136 151.128 79.0897 151.332 79.218C151.539 79.3467 151.78 79.4366 152.056 79.4886C152.33 79.5397 152.615 79.5653 152.907 79.5653C153.629 79.5653 154.188 79.4457 154.584 79.2052C154.978 78.9647 155.271 78.6776 155.461 78.3431C155.649 78.0085 155.765 77.6699 155.808 77.3263C155.85 76.9835 155.874 76.7083 155.874 76.5034V75.1397ZM147.413 72.4366C147.463 71.579 147.679 70.8666 148.058 70.3007C148.435 69.7348 148.918 69.2802 149.502 68.9366C150.087 68.5938 150.743 68.3497 151.476 68.2032C152.207 68.0585 152.942 67.9846 153.682 67.9846C154.352 67.9846 155.029 68.0316 155.718 68.1265C156.407 68.2205 157.033 68.4053 157.601 68.6796C158.17 68.9539 158.633 69.3355 158.993 69.8252C159.355 70.3135 159.536 70.9611 159.536 71.768V78.6904C159.536 79.2905 159.57 79.866 159.638 80.4141C159.708 80.9636 159.828 81.3757 160 81.65H156.286C156.217 81.4442 156.161 81.2347 156.117 81.0198C156.075 80.8053 156.045 80.5867 156.029 80.3635C155.442 80.9636 154.756 81.384 153.964 81.6245C153.174 81.8641 152.364 81.9846 151.539 81.9846C150.904 81.9846 150.309 81.907 149.76 81.7532C149.21 81.5994 148.728 81.3584 148.315 81.0321C147.902 80.7071 147.58 80.295 147.348 79.7976C147.116 79.3001 147 78.7077 147 78.0218C147 77.2669 147.132 76.6449 147.401 76.1552C147.666 75.6668 148.011 75.2771 148.431 74.9846C148.853 74.6929 149.336 74.4743 149.876 74.3283C150.418 74.1827 150.964 74.0668 151.513 73.9814C152.065 73.8956 152.606 73.8263 153.139 73.7751C153.673 73.7231 154.146 73.6469 154.559 73.5438C154.971 73.4411 155.296 73.2905 155.538 73.0929C155.779 72.8962 155.89 72.6091 155.874 72.2307C155.874 71.836 155.808 71.5238 155.679 71.2911C155.551 71.0597 155.38 70.8803 155.164 70.7507C154.948 70.6225 154.7 70.5367 154.415 70.4942C154.131 70.4513 153.826 70.4289 153.501 70.4289C152.778 70.4289 152.211 70.5841 151.799 70.8931C151.386 71.2021 151.145 71.7159 151.075 72.4366H147.413Z" fill="white"></path><path d="M165.242 68.3544V70.8848H165.29C165.45 70.4631 165.668 70.0717 165.94 69.7112C166.213 69.3508 166.524 69.044 166.876 68.7892C167.228 68.5344 167.606 68.3362 168.006 68.1954C168.406 68.0552 168.822 67.9846 169.254 67.9846C169.479 67.9846 169.728 68.0294 170 68.1169V71.5974C169.84 71.5618 169.648 71.531 169.423 71.5048C169.198 71.4777 168.982 71.4646 168.775 71.4646C168.15 71.4646 167.621 71.5796 167.189 71.8073C166.757 72.0359 166.409 72.3478 166.144 72.7433C165.88 73.1394 165.692 73.6008 165.579 74.1282C165.467 74.6556 165.411 75.227 165.411 75.8423V81.9846H162V68.3544H165.242Z" fill="white"></path><path d="M177.704 70.7379C177.126 70.7379 176.64 70.8712 176.251 71.1373C175.859 71.4033 175.54 71.747 175.295 72.1673C175.048 72.5867 174.873 73.0513 174.772 73.5565C174.669 74.0622 174.619 74.5642 174.619 75.0621C174.619 75.5423 174.669 76.0315 174.772 76.529C174.873 77.0264 175.04 77.4764 175.27 77.8794C175.499 78.2828 175.808 78.6128 176.2 78.8711C176.59 79.1276 177.067 79.2563 177.626 79.2563C178.492 79.2563 179.159 79.0121 179.627 78.5238C180.094 78.0346 180.388 77.3783 180.506 76.5545H184C183.761 78.3212 183.08 79.668 181.96 80.5949C180.839 81.5218 179.402 81.9846 177.651 81.9846C176.665 81.9846 175.762 81.818 174.937 81.4825C174.112 81.148 173.413 80.6802 172.836 80.0801C172.256 79.4795 171.807 78.7634 171.484 77.9314C171.16 77.0994 171 76.1853 171 75.1904C171 74.1608 171.149 73.2047 171.444 72.3207C171.742 71.438 172.18 70.6745 172.757 70.031C173.335 69.3879 174.041 68.8855 174.873 68.5245C175.705 68.1648 176.659 67.9846 177.729 67.9846C178.51 67.9846 179.262 68.0872 179.984 68.2931C180.706 68.4989 181.352 68.8124 181.921 69.2328C182.492 69.654 182.955 70.177 183.31 70.8027C183.667 71.4289 183.871 72.1714 183.922 73.029H180.379C180.142 71.5019 179.249 70.7379 177.704 70.7379Z" fill="white"></path><path d="M193.504 71.459C193.076 70.9789 192.425 70.7379 191.551 70.7379C190.98 70.7379 190.506 70.8374 190.128 71.0341C189.749 71.2322 189.448 71.4763 189.222 71.768C188.992 72.0596 188.834 72.3681 188.741 72.6944C188.648 73.0212 188.594 73.3115 188.578 73.5693H194.399C194.232 72.6429 193.932 71.9391 193.504 71.459ZM189.459 78.459C189.996 78.9911 190.771 79.2563 191.777 79.2563C192.5 79.2563 193.121 79.0719 193.643 78.7032C194.164 78.3353 194.483 77.9442 194.601 77.5321H197.75C197.248 79.1276 196.475 80.2695 195.432 80.9545C194.39 81.6418 193.13 81.9846 191.653 81.9846C190.627 81.9846 189.704 81.818 188.879 81.4825C188.057 81.148 187.359 80.6725 186.788 80.0545C186.217 79.4366 185.777 78.6995 185.467 77.8411C185.154 76.9835 185 76.0393 185 75.0101C185 74.0161 185.159 73.0892 185.478 72.2307C185.798 71.3732 186.251 70.6316 186.84 70.0045C187.427 69.3784 188.13 68.8855 188.943 68.5245C189.758 68.1648 190.661 67.9846 191.653 67.9846C192.761 67.9846 193.726 68.2032 194.551 68.6413C195.374 69.0785 196.049 69.6668 196.579 70.4038C197.107 71.1418 197.49 71.9829 197.725 72.9263C197.961 73.8701 198.045 74.8559 197.977 75.8859H188.578C188.628 77.0693 188.922 77.9278 189.459 78.459Z" fill="white"></path><path d="M204 62.9846H200V81.9846H204V62.9846Z" fill="white"></path><path d="M209.873 76.5673C209.979 77.0739 210.158 77.5289 210.41 77.9314C210.664 78.3353 210.998 78.6566 211.417 78.8962C211.836 79.1372 212.36 79.2563 212.988 79.2563C213.616 79.2563 214.144 79.1372 214.571 78.8962C214.997 78.6566 215.339 78.3353 215.591 77.9314C215.845 77.5289 216.023 77.0739 216.127 76.5673C216.233 76.0616 216.285 75.5423 216.285 75.0101C216.285 74.4789 216.233 73.9559 216.127 73.4411C216.023 72.9263 215.845 72.4713 215.591 72.0769C215.339 71.6822 214.997 71.3604 214.571 71.1117C214.144 70.863 213.616 70.7379 212.988 70.7379C212.36 70.7379 211.836 70.863 211.417 71.1117C210.998 71.3604 210.664 71.6822 210.41 72.0769C210.158 72.4713 209.979 72.9263 209.873 73.4411C209.77 73.9559 209.718 74.4789 209.718 75.0101C209.718 75.5423 209.77 76.0616 209.873 76.5673ZM206.499 72.1148C206.829 71.2495 207.301 70.5111 207.911 69.9014C208.522 69.293 209.254 68.8211 210.108 68.4866C210.965 68.152 211.922 67.9846 212.988 67.9846C214.052 67.9846 215.016 68.152 215.88 68.4866C216.743 68.8211 217.48 69.293 218.089 69.9014C218.701 70.5111 219.172 71.2495 219.503 72.1148C219.835 72.9815 220 73.9463 220 75.0101C220 76.0744 219.835 77.0346 219.503 77.8931C219.172 78.7506 218.701 79.484 218.089 80.0928C217.48 80.7026 216.743 81.1699 215.88 81.4962C215.016 81.8212 214.052 81.9846 212.988 81.9846C211.922 81.9846 210.965 81.8212 210.108 81.4962C209.254 81.1699 208.522 80.7026 207.911 80.0928C207.301 79.484 206.829 78.7506 206.499 77.8931C206.168 77.0346 206 76.0744 206 75.0101C206 73.9463 206.168 72.9815 206.499 72.1148Z" fill="white"></path><path d="M225.618 68.3544V70.2517H225.699C226.182 69.4611 226.806 68.8851 227.575 68.5246C228.343 68.1655 229.129 67.9846 229.934 67.9846C230.951 67.9846 231.787 68.1206 232.439 68.3932C233.092 68.6658 233.605 69.044 233.981 69.5266C234.357 70.0109 234.619 70.5991 234.771 71.2939C234.923 71.9882 235 72.7569 235 73.6008V81.9846H231.192V74.2858C231.192 73.1609 231.014 72.3216 230.657 71.768C230.301 71.2144 229.664 70.9372 228.753 70.9372C227.717 70.9372 226.967 71.2406 226.502 71.8475C226.037 72.453 225.806 73.4512 225.806 74.8394V81.9846H222V68.3544H225.618Z" fill="white"></path><path d="M245.874 75.1397C245.718 75.2771 245.526 75.3834 245.294 75.461C245.06 75.5377 244.812 75.602 244.545 75.6545C244.278 75.7052 244 75.7481 243.708 75.7823C243.413 75.8175 243.121 75.859 242.831 75.911C242.555 75.9621 242.283 76.0315 242.017 76.1168C241.75 76.2026 241.518 76.3186 241.321 76.4642C241.124 76.6097 240.964 76.795 240.843 77.0173C240.723 77.2405 240.662 77.5239 240.662 77.8666C240.662 78.1929 240.723 78.4681 240.843 78.6904C240.964 78.9136 241.128 79.0897 241.332 79.218C241.539 79.3467 241.78 79.4366 242.056 79.4886C242.33 79.5397 242.615 79.5653 242.908 79.5653C243.629 79.5653 244.188 79.4457 244.585 79.2052C244.978 78.9647 245.271 78.6776 245.461 78.3431C245.649 78.0085 245.765 77.6699 245.809 77.3263C245.851 76.9835 245.874 76.7083 245.874 76.5034V75.1397ZM237.413 72.4366C237.463 71.579 237.679 70.8666 238.058 70.3007C238.435 69.7348 238.918 69.2802 239.503 68.9366C240.087 68.5938 240.743 68.3497 241.476 68.2032C242.207 68.0585 242.942 67.9846 243.682 67.9846C244.353 67.9846 245.03 68.0316 245.719 68.1265C246.407 68.2205 247.034 68.4053 247.602 68.6796C248.17 68.9539 248.634 69.3355 248.993 69.8252C249.355 70.3135 249.536 70.9611 249.536 71.768V78.6904C249.536 79.2905 249.571 79.866 249.638 80.4141C249.708 80.9636 249.828 81.3757 250 81.65H246.287C246.217 81.4442 246.162 81.2347 246.117 81.0198C246.075 80.8053 246.046 80.5867 246.03 80.3635C245.443 80.9636 244.756 81.384 243.965 81.6245C243.174 81.8641 242.365 81.9846 241.539 81.9846C240.904 81.9846 240.309 81.907 239.76 81.7532C239.21 81.5994 238.728 81.3584 238.315 81.0321C237.902 80.7071 237.58 80.295 237.348 79.7976C237.116 79.3001 237 78.7077 237 78.0218C237 77.2669 237.132 76.6449 237.401 76.1552C237.666 75.6668 238.011 75.2771 238.431 74.9846C238.853 74.6929 239.336 74.4743 239.876 74.3283C240.419 74.1827 240.964 74.0668 241.513 73.9814C242.066 73.8956 242.606 73.8263 243.139 73.7751C243.672 73.7231 244.146 73.6469 244.559 73.5438C244.972 73.4411 245.296 73.2905 245.538 73.0929C245.779 72.8962 245.89 72.6091 245.874 72.2307C245.874 71.836 245.809 71.5238 245.679 71.2911C245.552 71.0597 245.38 70.8803 245.164 70.7507C244.949 70.6225 244.7 70.5367 244.415 70.4942C244.132 70.4513 243.826 70.4289 243.501 70.4289C242.777 70.4289 242.211 70.5841 241.799 70.8931C241.386 71.2021 241.145 71.7159 241.075 72.4366H237.413Z" fill="white"></path><path d="M57.56 55.1607C56.6767 55.1607 55.8411 55.6381 55.4531 56.4309C52.5742 62.3345 46.5283 66.436 39.55 66.436C30.2664 66.436 21.8345 58.7987 21.7608 48.8733C21.7534 48.0636 22.3861 47.3903 23.1953 47.3903H73.6822C75.9278 47.3903 77.7581 45.6422 77.9199 43.4025C77.9751 42.6308 78.0067 41.8412 78.0067 41C78.0067 18.3562 60.9835 0 39.2849 0C17.5887 0 0 18.3562 0 41C0 63.6441 17.5887 82 39.2849 82C55.1902 82 68.8428 72.1132 75.0175 57.9245C75.5841 56.6237 74.6242 55.1607 73.2034 55.1607H57.56ZM39.55 15.2434C49.1763 15.2434 57.1482 22.4858 57.7746 33.1583C57.8191 33.8998 57.1988 34.5216 56.4548 34.5216H22.4819C21.8215 34.5216 21.2608 33.9816 21.2763 33.3226C21.514 23.1662 29.8977 15.2434 39.55 15.2434Z" fill="white"></path></svg> 