<?xml version="1.0" encoding="UTF-8"?> <svg xmlns="http://www.w3.org/2000/svg" width="282" height="82" viewBox="0 0 282 82" fill="none"><path d="M102.057 8.09235C101.872 7.79603 101.641 7.53517 101.363 7.31117C101.087 7.08647 100.772 6.91127 100.423 6.78558C100.074 6.66024 99.7071 6.59775 99.3244 6.59775C98.6246 6.59775 98.0299 6.73327 97.5422 7.00396C97.0545 7.27466 96.6575 7.63769 96.3548 8.09235C96.0504 8.54807 95.8296 9.06629 95.6905 9.64664C95.5519 10.2281 95.4827 10.8277 95.4827 11.4481C95.4827 12.0418 95.5519 12.6197 95.6905 13.1804C95.8296 13.7421 96.0504 14.2467 96.3548 14.6954C96.6575 15.1441 97.0545 15.5036 97.5422 15.7743C98.0299 16.045 98.6246 16.1801 99.3244 16.1801C100.275 16.1801 101.017 15.8901 101.551 15.3087C102.085 14.7284 102.413 13.9626 102.532 13.0122H105.541C105.461 13.897 105.256 14.6954 104.927 15.4084C104.597 16.1205 104.161 16.7286 103.62 17.2296C103.079 17.7316 102.445 18.1143 101.721 18.378C100.994 18.6413 100.195 18.774 99.3244 18.774C98.2419 18.774 97.268 18.5862 96.4047 18.2098C95.5396 17.8331 94.8096 17.3159 94.2167 16.6555C93.6223 15.9958 93.1665 15.2196 92.8498 14.3285C92.5325 13.4385 92.3741 12.4782 92.3741 11.4481C92.3741 10.3924 92.5325 9.41246 92.8498 8.50805C93.1665 7.60468 93.6223 6.81578 94.2167 6.14203C94.8096 5.46933 95.5396 4.94164 96.4047 4.5586C97.268 4.1759 98.2419 3.98456 99.3244 3.98456C100.102 3.98456 100.839 4.09656 101.532 4.32091C102.224 4.54525 102.845 4.87212 103.392 5.30081C103.94 5.7302 104.392 6.2614 104.749 6.89442C105.105 7.52815 105.329 8.25456 105.421 9.07261H102.413C102.36 8.7166 102.241 8.38973 102.057 8.09235Z" fill="#2E42FB"></path><path d="M109.717 14.5465C109.797 14.9366 109.933 15.2863 110.123 15.5963C110.316 15.9066 110.568 16.1545 110.885 16.3385C111.202 16.5235 111.599 16.6155 112.074 16.6155C112.55 16.6155 112.949 16.5235 113.272 16.3385C113.595 16.1545 113.853 15.9066 114.044 15.5963C114.236 15.2863 114.371 14.9366 114.449 14.5465C114.53 14.1579 114.568 13.758 114.568 13.3486C114.568 12.9399 114.53 12.5379 114.449 12.1415C114.371 11.7455 114.236 11.3958 114.044 11.0921C113.853 10.7888 113.595 10.5412 113.272 10.3499C112.949 10.1585 112.55 10.0623 112.074 10.0623C111.599 10.0623 111.202 10.1585 110.885 10.3499C110.568 10.5412 110.316 10.7888 110.123 11.0921C109.933 11.3958 109.797 11.7455 109.717 12.1415C109.639 12.5379 109.6 12.9399 109.6 13.3486C109.6 13.758 109.639 14.1579 109.717 14.5465ZM107.165 11.1216C107.414 10.4559 107.771 9.88785 108.233 9.41879C108.695 8.95043 109.249 8.5874 109.895 8.33005C110.544 8.0727 111.268 7.94385 112.074 7.94385C112.879 7.94385 113.609 8.0727 114.262 8.33005C114.916 8.5874 115.473 8.95043 115.934 9.41879C116.397 9.88785 116.753 10.4559 117.004 11.1216C117.255 11.7883 117.38 12.5305 117.38 13.3486C117.38 14.1677 117.255 14.9064 117.004 15.5668C116.753 16.2265 116.397 16.7907 115.934 17.2591C115.473 17.7281 114.916 18.0876 114.262 18.3387C113.609 18.589 112.879 18.7143 112.074 18.7143C111.268 18.7143 110.544 18.589 109.895 18.3387C109.249 18.0876 108.695 17.7281 108.233 17.2591C107.771 16.7907 107.414 16.2265 107.165 15.5668C106.914 14.9064 106.787 14.1677 106.787 13.3486C106.787 12.5305 106.914 11.7883 107.165 11.1216Z" fill="#2E42FB"></path><path d="M121.597 8.22156V9.64665H121.657C122.013 9.05295 122.474 8.6204 123.042 8.34971C123.611 8.08007 124.191 7.94385 124.785 7.94385C125.537 7.94385 126.155 8.04602 126.635 8.2507C127.118 8.45574 127.497 8.73943 127.775 9.10175C128.052 9.46584 128.246 9.90751 128.358 10.4289C128.471 10.9506 128.528 11.5275 128.528 12.1612V18.457H125.715V12.6755C125.715 11.8312 125.583 11.2009 125.319 10.7852C125.056 10.3696 124.586 10.161 123.913 10.161C123.147 10.161 122.594 10.3889 122.25 10.8449C121.907 11.2996 121.736 12.0492 121.736 13.0912V18.457H118.925V8.22156H121.597Z" fill="#2E42FB"></path><path d="M132.773 15.9133C132.898 16.1313 133.06 16.309 133.258 16.4473C133.455 16.586 133.683 16.6885 133.942 16.7542C134.197 16.8209 134.466 16.8532 134.742 16.8532C134.942 16.8532 135.148 16.8307 135.367 16.7844C135.584 16.7384 135.782 16.6654 135.96 16.5664C136.138 16.4677 136.288 16.336 136.407 16.1703C136.525 16.0057 136.585 15.7975 136.585 15.5464C136.585 15.1244 136.304 14.8077 135.743 14.5967C135.182 14.3857 134.399 14.1737 133.397 13.9626C132.987 13.8703 132.588 13.7618 132.198 13.6361C131.808 13.5108 131.463 13.3461 131.159 13.1414C130.856 12.9367 130.612 12.6794 130.427 12.3687C130.242 12.059 130.149 11.6795 130.149 11.2311C130.149 10.5707 130.279 10.0293 130.536 9.60768C130.794 9.18461 131.132 8.85178 131.556 8.60671C131.978 8.36305 132.453 8.19137 132.982 8.09236C133.509 7.9937 134.05 7.94385 134.603 7.94385C135.159 7.94385 135.697 7.99721 136.218 8.10219C136.74 8.20822 137.205 8.38623 137.614 8.63726C138.024 8.88829 138.363 9.22113 138.634 9.63682C138.905 10.0525 139.065 10.5778 139.118 11.2108H136.446C136.407 10.6694 136.2 10.3035 135.832 10.1122C135.462 9.92086 135.027 9.82466 134.525 9.82466C134.367 9.82466 134.196 9.83449 134.011 9.85485C133.826 9.87451 133.656 9.91699 133.505 9.983C133.354 10.0497 133.226 10.1452 133.119 10.2705C133.014 10.3962 132.961 10.5644 132.961 10.7754C132.961 11.0264 133.053 11.2311 133.238 11.3884C133.423 11.5471 133.664 11.676 133.961 11.775C134.258 11.8736 134.598 11.9635 134.981 12.0418C135.363 12.1212 135.753 12.2075 136.149 12.3002C136.558 12.3926 136.957 12.5049 137.347 12.6366C137.735 12.7682 138.082 12.9438 138.387 13.1607C138.689 13.3788 138.933 13.6495 139.118 13.9725C139.303 14.2965 139.396 14.6954 139.396 15.1708C139.396 15.8438 139.261 16.408 138.99 16.863C138.72 17.3184 138.367 17.6853 137.931 17.962C137.495 18.239 136.996 18.4338 136.435 18.5462C135.874 18.6582 135.303 18.7143 134.723 18.7143C134.13 18.7143 133.548 18.6547 132.982 18.5363C132.414 18.418 131.908 18.2193 131.467 17.9426C131.023 17.6649 130.66 17.2991 130.377 16.8434C130.094 16.3883 129.939 15.8171 129.913 15.1307H132.585C132.585 15.4351 132.647 15.6949 132.773 15.9133Z" fill="#2E42FB"></path><path d="M143.394 14.5465C143.474 14.9366 143.61 15.2863 143.8 15.5963C143.993 15.9066 144.245 16.1545 144.562 16.3385C144.879 16.5235 145.276 16.6155 145.751 16.6155C146.227 16.6155 146.626 16.5235 146.95 16.3385C147.271 16.1545 147.53 15.9066 147.721 15.5963C147.913 15.2863 148.048 14.9366 148.126 14.5465C148.206 14.1579 148.246 13.758 148.246 13.3486C148.246 12.9399 148.206 12.5379 148.126 12.1415C148.048 11.7455 147.913 11.3958 147.721 11.0921C147.53 10.7888 147.271 10.5412 146.95 10.3499C146.626 10.1585 146.227 10.0623 145.751 10.0623C145.276 10.0623 144.879 10.1585 144.562 10.3499C144.245 10.5412 143.993 10.7888 143.8 11.0921C143.61 11.3958 143.474 11.7455 143.394 12.1415C143.316 12.5379 143.277 12.9399 143.277 13.3486C143.277 13.758 143.316 14.1579 143.394 14.5465ZM140.842 11.1216C141.091 10.4559 141.448 9.88785 141.91 9.41879C142.372 8.95043 142.926 8.5874 143.572 8.33005C144.22 8.0727 144.945 7.94385 145.751 7.94385C146.556 7.94385 147.286 8.0727 147.939 8.33005C148.593 8.5874 149.15 8.95043 149.611 9.41879C150.074 9.88785 150.43 10.4559 150.681 11.1216C150.932 11.7883 151.057 12.5305 151.057 13.3486C151.057 14.1677 150.932 14.9064 150.681 15.5668C150.43 16.2265 150.074 16.7907 149.611 17.2591C149.15 17.7281 148.593 18.0876 147.939 18.3387C147.286 18.589 146.556 18.7143 145.751 18.7143C144.945 18.7143 144.22 18.589 143.572 18.3387C142.926 18.0876 142.372 17.7281 141.91 17.2591C141.448 16.7907 141.091 16.2265 140.842 15.5668C140.59 14.9064 140.464 14.1677 140.464 13.3486C140.464 12.5305 140.59 11.7883 140.842 11.1216Z" fill="#2E42FB"></path><path d="M155.294 8.22156V10.122H155.333C155.464 9.80499 155.644 9.51148 155.869 9.24079C156.093 8.97009 156.349 8.73943 156.639 8.54808C156.93 8.35673 157.241 8.20822 157.57 8.10219C157.9 7.99721 158.243 7.94385 158.599 7.94385C158.785 7.94385 158.989 7.97755 159.214 8.04356V10.6567C159.082 10.6304 158.924 10.6069 158.739 10.5876C158.553 10.5669 158.375 10.5574 158.204 10.5574C157.69 10.5574 157.253 10.6434 156.897 10.8144C156.542 10.9861 156.255 11.2203 156.036 11.5176C155.819 11.815 155.664 12.1612 155.571 12.5572C155.479 12.9533 155.432 13.3826 155.432 13.8443V18.457H152.621V8.22156H155.294Z" fill="#2E42FB"></path><path d="M164.599 10.0623C164.15 10.0623 163.773 10.1649 163.47 10.3696C163.166 10.5742 162.918 10.8383 162.728 11.1616C162.536 11.4846 162.4 11.8417 162.322 12.2307C162.242 12.6197 162.203 13.0059 162.203 13.3886C162.203 13.758 162.242 14.1347 162.322 14.5174C162.4 14.9001 162.53 15.2466 162.708 15.5563C162.886 15.867 163.127 16.1205 163.431 16.3188C163.734 16.5165 164.104 16.6155 164.538 16.6155C165.211 16.6155 165.73 16.4277 166.093 16.052C166.456 15.6753 166.683 15.1708 166.776 14.537H169.489C169.304 15.8961 168.775 16.9322 167.905 17.6453C167.034 18.3583 165.918 18.7143 164.558 18.7143C163.793 18.7143 163.091 18.5862 162.45 18.3278C161.81 18.0708 161.266 17.7113 160.817 17.2492C160.367 16.7872 160.018 16.236 159.767 15.5963C159.516 14.9562 159.392 14.253 159.392 13.4876C159.392 12.6952 159.507 11.96 159.737 11.2799C159.968 10.6009 160.308 10.0132 160.757 9.5185C161.206 9.02346 161.754 8.63726 162.4 8.35954C163.046 8.08253 163.787 7.94385 164.619 7.94385C165.226 7.94385 165.81 8.02284 166.37 8.18154C166.931 8.33988 167.433 8.58108 167.875 8.90444C168.318 9.2285 168.677 9.6305 168.953 10.1122C169.231 10.5939 169.389 11.1651 169.429 11.8248H166.676C166.493 10.6497 165.799 10.0623 164.599 10.0623Z" fill="#2E42FB"></path><path d="M173.705 8.22151V18.4569H170.894V8.22151H173.705ZM170.894 6.63703V4.32086H173.705V6.63703H170.894Z" fill="#2E42FB"></path><path d="M187.486 12.0916C187.406 11.7026 187.27 11.3592 187.08 11.0619C186.887 10.7655 186.64 10.5243 186.338 10.34C186.033 10.155 185.651 10.0623 185.187 10.0623C184.726 10.0623 184.337 10.155 184.019 10.34C183.703 10.5243 183.45 10.769 183.258 11.0724C183.067 11.3761 182.928 11.7223 182.843 12.1113C182.756 12.5013 182.713 12.9072 182.713 13.3292C182.713 13.7253 182.759 14.1213 182.852 14.5173C182.944 14.9134 183.092 15.2669 183.297 15.5766C183.502 15.8862 183.76 16.1373 184.07 16.3286C184.379 16.5203 184.753 16.6155 185.187 16.6155C185.651 16.6155 186.036 16.5235 186.346 16.3384C186.656 16.1545 186.904 15.9066 187.089 15.5962C187.274 15.2862 187.406 14.933 187.486 14.537C187.564 14.1409 187.603 13.7323 187.603 13.3096C187.603 12.8875 187.564 12.4817 187.486 12.0916ZM187.603 17.1502C187.274 17.7049 186.841 18.1037 186.307 18.3485C185.773 18.5921 185.168 18.7143 184.495 18.7143C183.729 18.7143 183.056 18.5658 182.476 18.2691C181.896 17.9717 181.417 17.5694 181.041 17.0613C180.664 16.553 180.381 15.9691 180.189 15.3087C179.998 14.649 179.902 13.9626 179.902 13.2499C179.902 12.5635 179.998 11.9003 180.189 11.2602C180.381 10.6202 180.664 10.056 181.041 9.56725C181.417 9.07958 181.889 8.68636 182.457 8.38969C183.023 8.09231 183.683 7.9438 184.436 7.9438C185.043 7.9438 185.62 8.07265 186.168 8.33C186.717 8.58735 187.147 8.96723 187.464 9.4686H187.505V4.32086H190.316V18.4569H187.644V17.1502H187.603Z" fill="#2E42FB"></path><path d="M195.266 4.32086V7.3501C195.278 7.78545 195.216 8.19483 195.078 8.57752C194.94 8.96021 194.744 9.29656 194.492 9.58691C194.244 9.87797 193.943 10.1192 193.592 10.3098C193.243 10.5012 192.864 10.624 192.454 10.6764V9.36959C192.956 9.1979 193.298 8.94406 193.483 8.60666C193.669 8.27031 193.761 7.85848 193.761 7.36976H192.454V4.32086H195.266Z" fill="#2E42FB"></path><path d="M208.274 4.32086V6.9344H200.809V9.96329H207.66V12.3792H200.809V15.8438H208.432V18.4569H197.701V4.32086H208.274Z" fill="#2E42FB"></path><path d="M217.123 12.0916C217.045 11.7026 216.908 11.3592 216.717 11.0619C216.525 10.7655 216.277 10.5243 215.975 10.34C215.671 10.155 215.288 10.0623 214.827 10.0623C214.364 10.0623 213.976 10.155 213.659 10.34C213.342 10.5243 213.087 10.769 212.897 11.0724C212.705 11.3761 212.566 11.7223 212.48 12.1113C212.395 12.5013 212.352 12.9072 212.352 13.3292C212.352 13.7253 212.398 14.1213 212.491 14.5173C212.582 14.9134 212.731 15.2669 212.936 15.5766C213.141 15.8862 213.397 16.1373 213.709 16.3286C214.019 16.5203 214.391 16.6155 214.827 16.6155C215.288 16.6155 215.674 16.5235 215.986 16.3384C216.295 16.1545 216.543 15.9066 216.728 15.5962C216.912 15.2862 217.045 14.933 217.123 14.537C217.203 14.1409 217.243 13.7323 217.243 13.3096C217.243 12.8875 217.203 12.4817 217.123 12.0916ZM217.243 17.1502C216.912 17.7049 216.48 18.1037 215.945 18.3485C215.411 18.5921 214.807 18.7143 214.134 18.7143C213.369 18.7143 212.696 18.5658 212.114 18.2691C211.533 17.9717 211.054 17.5694 210.679 17.0613C210.303 16.553 210.018 15.9691 209.828 15.3087C209.635 14.649 209.541 13.9626 209.541 13.2499C209.541 12.5635 209.635 11.9003 209.828 11.2602C210.018 10.6202 210.303 10.056 210.679 9.56725C211.054 9.07958 211.526 8.68636 212.094 8.38969C212.662 8.09231 213.322 7.9438 214.074 7.9438C214.681 7.9438 215.259 8.07265 215.806 8.33C216.354 8.58735 216.787 8.96723 217.104 9.4686H217.143V4.32086H219.954V18.4569H217.282V17.1502H217.243Z" fill="#2E42FB"></path><path d="M228.725 18.457V17.0319H228.664C228.309 17.6256 227.847 18.0546 227.28 18.3183C226.712 18.5827 226.132 18.7143 225.537 18.7143C224.786 18.7143 224.168 18.6153 223.685 18.418C223.205 18.2193 222.826 17.9391 222.548 17.5757C222.27 17.2138 222.076 16.771 221.964 16.2497C221.851 15.7279 221.795 15.1511 221.795 14.5174V8.22156H224.606V14.002C224.606 14.8477 224.739 15.478 225.003 15.8933C225.266 16.309 225.735 16.5165 226.409 16.5165C227.173 16.5165 227.728 16.2886 228.072 15.834C228.414 15.3782 228.586 14.6294 228.586 13.5863V8.22156H231.397V18.457H228.725Z" fill="#2E42FB"></path><path d="M238.168 10.0623C237.719 10.0623 237.343 10.1649 237.039 10.3696C236.736 10.5742 236.489 10.8383 236.297 11.1616C236.106 11.4846 235.971 11.8417 235.891 12.2307C235.812 12.6197 235.773 13.0059 235.773 13.3886C235.773 13.758 235.812 14.1347 235.891 14.5174C235.971 14.9001 236.099 15.2466 236.277 15.5563C236.455 15.867 236.695 16.1205 237 16.3188C237.304 16.5165 237.673 16.6155 238.109 16.6155C238.782 16.6155 239.3 16.4277 239.663 16.052C240.026 15.6753 240.254 15.1708 240.347 14.537H243.058C242.873 15.8961 242.346 16.9322 241.474 17.6453C240.603 18.3583 239.489 18.7143 238.128 18.7143C237.363 18.7143 236.66 18.5862 236.021 18.3278C235.38 18.0708 234.835 17.7113 234.386 17.2492C233.938 16.7872 233.587 16.236 233.338 15.5963C233.087 14.9562 232.96 14.253 232.96 13.4876C232.96 12.6952 233.076 11.96 233.308 11.2799C233.539 10.6009 233.879 10.0132 234.328 9.5185C234.776 9.02346 235.323 8.63726 235.971 8.35954C236.617 8.08253 237.356 7.94385 238.187 7.94385C238.794 7.94385 239.378 8.02284 239.941 8.18154C240.502 8.33988 241.002 8.58108 241.445 8.90444C241.887 9.2285 242.246 9.6305 242.524 10.1122C242.802 10.5939 242.96 11.1651 242.999 11.8248H240.247C240.062 10.6497 239.369 10.0623 238.168 10.0623Z" fill="#2E42FB"></path><path d="M250.759 13.4483C250.642 13.5543 250.492 13.6361 250.315 13.6958C250.136 13.7544 249.944 13.8043 249.741 13.8443C249.537 13.8836 249.321 13.9167 249.097 13.9433C248.872 13.97 248.648 14.002 248.424 14.042C248.212 14.0813 248.005 14.1347 247.8 14.2007C247.596 14.2663 247.418 14.3555 247.265 14.4675C247.113 14.5795 246.991 14.7221 246.9 14.893C246.807 15.0647 246.761 15.2828 246.761 15.5464C246.761 15.7975 246.807 16.0092 246.9 16.1802C246.991 16.3518 247.117 16.4874 247.275 16.586C247.434 16.6847 247.619 16.7542 247.829 16.7942C248.041 16.8335 248.258 16.8532 248.483 16.8532C249.038 16.8532 249.467 16.7616 249.77 16.5762C250.074 16.3912 250.298 16.1703 250.442 15.9133C250.588 15.656 250.678 15.3951 250.711 15.1307C250.743 14.8674 250.759 14.6554 250.759 14.4977V13.4483ZM244.267 11.3691C244.306 10.7094 244.47 10.161 244.762 9.726C245.052 9.29064 245.42 8.94095 245.869 8.67623C246.318 8.41291 246.823 8.22507 247.384 8.11202C247.945 8.00072 248.509 7.94385 249.077 7.94385C249.591 7.94385 250.113 7.98036 250.642 8.05339C251.169 8.12536 251.651 8.26791 252.085 8.47891C252.522 8.68957 252.878 8.98344 253.155 9.36016C253.433 9.73548 253.572 10.234 253.572 10.8544V16.1802C253.572 16.6422 253.597 17.0846 253.65 17.5066C253.704 17.9293 253.795 18.2463 253.928 18.457H251.076C251.024 18.2986 250.98 18.1375 250.948 17.9718C250.914 17.8075 250.891 17.6389 250.878 17.4673C250.43 17.9293 249.901 18.2523 249.294 18.4373C248.687 18.6217 248.068 18.7143 247.434 18.7143C246.946 18.7143 246.49 18.6547 246.068 18.5363C245.645 18.418 245.276 18.2326 244.959 17.9816C244.642 17.7316 244.395 17.4146 244.217 17.0319C244.039 16.6492 243.95 16.1935 243.95 15.6654C243.95 15.0854 244.051 14.6062 244.256 14.2298C244.461 13.8542 244.724 13.5543 245.048 13.3293C245.37 13.1049 245.741 12.9367 246.158 12.8244C246.572 12.712 246.991 12.6232 247.414 12.5572C247.836 12.4916 248.253 12.4382 248.661 12.3989C249.07 12.3588 249.433 12.3002 249.75 12.2209C250.067 12.1415 250.318 12.026 250.503 11.8736C250.686 11.7223 250.773 11.5018 250.759 11.2108C250.759 10.9071 250.711 10.6666 250.612 10.4879C250.512 10.3099 250.38 10.1719 250.215 10.0722C250.051 9.97352 249.859 9.90751 249.642 9.87451C249.424 9.84151 249.189 9.82466 248.938 9.82466C248.384 9.82466 247.948 9.94403 247.632 10.1817C247.315 10.4194 247.129 10.8144 247.078 11.3691H244.267Z" fill="#2E42FB"></path><path d="M260.382 10.0623C259.933 10.0623 259.557 10.1649 259.253 10.3696C258.95 10.5742 258.703 10.8383 258.511 11.1616C258.32 11.4846 258.185 11.8417 258.105 12.2307C258.026 12.6197 257.987 13.0059 257.987 13.3886C257.987 13.758 258.026 14.1347 258.105 14.5174C258.185 14.9001 258.313 15.2466 258.491 15.5563C258.669 15.867 258.909 16.1205 259.214 16.3188C259.518 16.5165 259.886 16.6155 260.323 16.6155C260.996 16.6155 261.514 16.4277 261.877 16.052C262.24 15.6753 262.468 15.1708 262.56 14.537H265.272C265.087 15.8961 264.56 16.9322 263.687 17.6453C262.817 18.3583 261.702 18.7143 260.343 18.7143C259.577 18.7143 258.874 18.5862 258.235 18.3278C257.594 18.0708 257.049 17.7113 256.6 17.2492C256.152 16.7872 255.801 16.236 255.552 15.5963C255.301 14.9562 255.174 14.253 255.174 13.4876C255.174 12.6952 255.29 11.96 255.522 11.2799C255.753 10.6009 256.093 10.0132 256.542 9.5185C256.99 9.02346 257.537 8.63726 258.185 8.35954C258.831 8.08253 259.57 7.94385 260.401 7.94385C261.008 7.94385 261.592 8.02284 262.155 8.18154C262.716 8.33988 263.216 8.58108 263.659 8.90444C264.101 9.2285 264.46 9.6305 264.738 10.1122C265.016 10.5939 265.174 11.1651 265.213 11.8248H262.461C262.276 10.6497 261.583 10.0623 260.382 10.0623Z" fill="#2E42FB"></path><path d="M269.489 8.22151V18.4569H266.678V8.22151H269.489ZM266.678 6.63703V4.32086H269.489V6.63703H266.678Z" fill="#2E42FB"></path><path d="M277.012 2.91547L274.914 6.41973H276.874L280.101 2.91547H277.012ZM274.043 14.5465C274.122 14.9366 274.257 15.2862 274.449 15.5963C274.64 15.9066 274.894 16.1545 275.211 16.3385C275.528 16.5235 275.923 16.6155 276.398 16.6155C276.874 16.6155 277.273 16.5235 277.597 16.3385C277.92 16.1545 278.177 15.9066 278.369 15.5963C278.56 15.2862 278.695 14.9366 278.775 14.5465C278.854 14.1578 278.893 13.7579 278.893 13.3486C278.893 12.9399 278.854 12.5379 278.775 12.1415C278.695 11.7455 278.56 11.3958 278.369 11.0921C278.177 10.7887 277.92 10.5412 277.597 10.3499C277.273 10.1585 276.874 10.0623 276.398 10.0623C275.923 10.0623 275.528 10.1585 275.211 10.3499C274.894 10.5412 274.64 10.7887 274.449 11.0921C274.257 11.3958 274.122 11.7455 274.043 12.1415C273.963 12.5379 273.924 12.9399 273.924 13.3486C273.924 13.7579 273.963 14.1578 274.043 14.5465ZM271.488 11.1216C271.74 10.4559 272.096 9.88783 272.558 9.41877C273.019 8.95041 273.575 8.58738 274.221 8.33003C274.867 8.07268 275.594 7.94383 276.398 7.94383C277.203 7.94383 277.933 8.07268 278.586 8.33003C279.24 8.58738 279.797 8.95041 280.26 9.41877C280.721 9.88783 281.077 10.4559 281.328 11.1216C281.579 11.7883 281.706 12.5305 281.706 13.3486C281.706 14.1677 281.579 14.9064 281.328 15.5668C281.077 16.2265 280.721 16.7907 280.26 17.259C279.797 17.7281 279.24 18.0876 278.586 18.3387C277.933 18.589 277.203 18.7143 276.398 18.7143C275.594 18.7143 274.867 18.589 274.221 18.3387C273.575 18.0876 273.019 17.7281 272.558 17.259C272.096 16.7907 271.74 16.2265 271.488 15.5668C271.237 14.9064 271.113 14.1677 271.113 13.3486C271.113 12.5305 271.237 11.7883 271.488 11.1216Z" fill="#2E42FB"></path><path d="M99.8387 31.8891C99.7604 31.5001 99.6231 31.1564 99.4329 30.859C99.2408 30.5627 98.9933 30.3215 98.6903 30.1371C98.3862 29.9521 98.0032 29.8594 97.5422 29.8594C97.0791 29.8594 96.6912 29.9521 96.3745 30.1371C96.0574 30.3215 95.8032 30.5662 95.6126 30.8699C95.4202 31.1732 95.2812 31.5198 95.1959 31.9088C95.1105 32.2985 95.0677 32.7043 95.0677 33.1264C95.0677 33.5224 95.1141 33.9184 95.2064 34.3145C95.2973 34.7105 95.4469 35.0637 95.6516 35.3737C95.8563 35.6834 96.1126 35.9344 96.4243 36.1257C96.734 36.3171 97.1062 36.4126 97.5422 36.4126C98.0032 36.4126 98.3897 36.321 98.7015 36.1356C99.0108 35.9513 99.2584 35.7041 99.4437 35.3934C99.627 35.0837 99.7604 34.7301 99.8387 34.3341C99.9188 33.9377 99.9581 33.5294 99.9581 33.1067C99.9581 32.685 99.9188 32.2788 99.8387 31.8891ZM99.9581 36.9473C99.627 37.502 99.1962 37.9009 98.6601 38.1456C98.1261 38.3896 97.5226 38.5114 96.8499 38.5114C96.0841 38.5114 95.4111 38.3626 94.829 38.0662C94.249 37.7692 93.7701 37.3669 93.394 36.8585C93.0187 36.3501 92.7336 35.7662 92.543 35.1058C92.3513 34.4461 92.2569 33.7601 92.2569 33.047C92.2569 32.3606 92.3513 31.6978 92.543 31.0577C92.7336 30.4177 93.0187 29.8535 93.394 29.3647C93.7701 28.8767 94.2416 28.4835 94.8097 28.1872C95.3777 27.8898 96.0381 27.7413 96.7891 27.7413C97.3965 27.7413 97.9748 27.8701 98.5214 28.1275C99.0695 28.3848 99.5024 28.7647 99.8191 29.2657H99.858V24.1183H102.669V38.2541H99.9971V36.9473H99.9581Z" fill="#2E42FB"></path><path d="M110.718 30.4142C110.381 30.0449 109.871 29.8595 109.183 29.8595C108.735 29.8595 108.363 29.936 108.065 30.0873C107.768 30.2397 107.531 30.4275 107.353 30.6519C107.173 30.8762 107.049 31.1136 106.976 31.3646C106.903 31.616 106.86 31.8393 106.848 32.0377H111.421C111.289 31.3249 111.054 30.7836 110.718 30.4142ZM107.54 35.7993C107.962 36.2087 108.571 36.4126 109.361 36.4126C109.929 36.4126 110.417 36.2708 110.827 35.9871C111.236 35.7041 111.487 35.4032 111.579 35.0862H114.054C113.659 36.3136 113.052 37.1921 112.233 37.7191C111.414 38.2478 110.424 38.5115 109.263 38.5115C108.457 38.5115 107.732 38.3833 107.084 38.1253C106.438 37.8679 105.89 37.5021 105.441 37.0267C104.992 36.5513 104.647 35.9843 104.403 35.3239C104.158 34.6642 104.037 33.9378 104.037 33.1461C104.037 32.3814 104.161 31.6683 104.412 31.0079C104.663 30.3482 105.019 29.7777 105.482 29.2953C105.943 28.8136 106.495 28.4344 107.134 28.1567C107.775 27.88 108.484 27.7413 109.263 27.7413C110.134 27.7413 110.892 27.9095 111.54 28.2466C112.187 28.5829 112.717 29.0355 113.134 29.6025C113.549 30.1702 113.849 30.8173 114.034 31.543C114.22 32.269 114.286 33.0274 114.232 33.8198H106.848C106.887 34.7302 107.118 35.3906 107.54 35.7993Z" fill="#2E42FB"></path><path d="M127.06 35.8386C127.365 35.8386 127.655 35.8091 127.933 35.7494C128.211 35.6907 128.455 35.5907 128.665 35.4527C128.877 35.314 129.044 35.1262 129.17 34.8885C129.295 34.6508 129.359 34.3475 129.359 33.9781C129.359 33.2517 129.154 32.7338 128.745 32.4238C128.335 32.1135 127.794 31.9586 127.121 31.9586H123.735V35.8386H127.06ZM126.882 29.8401C127.438 29.8401 127.894 29.7081 128.25 29.4437C128.606 29.1804 128.784 28.7514 128.784 28.1566C128.784 27.8273 128.725 27.557 128.606 27.3449C128.487 27.1339 128.328 26.9692 128.131 26.8499C127.933 26.7315 127.705 26.6497 127.447 26.6027C127.191 26.557 126.923 26.5342 126.646 26.5342H123.735V29.8401H126.882ZM127.279 24.1183C127.953 24.1183 128.567 24.178 129.12 24.2964C129.674 24.4154 130.149 24.6106 130.546 24.8802C130.942 25.1509 131.25 25.5111 131.467 25.9598C131.684 26.4085 131.792 26.9629 131.792 27.6226C131.792 28.3357 131.632 28.9294 131.308 29.4048C130.984 29.8791 130.507 30.2692 129.873 30.5725C130.744 30.8235 131.394 31.2624 131.823 31.8891C132.252 32.5165 132.467 33.2721 132.467 34.1561C132.467 34.8688 132.328 35.4861 132.051 36.0067C131.773 36.5281 131.401 36.9547 130.933 37.284C130.463 37.614 129.928 37.858 129.329 38.0164C128.727 38.1747 128.111 38.2541 127.477 38.2541H120.627V24.1183H127.279Z" fill="#2E42FB"></path><path d="M140.386 33.2458C140.266 33.3515 140.119 33.4333 139.941 33.4929C139.761 33.5519 139.571 33.6014 139.366 33.6418C139.161 33.6808 138.947 33.7138 138.723 33.7401C138.497 33.7672 138.273 33.7991 138.05 33.8391C137.838 33.8784 137.63 33.9318 137.425 33.9975C137.22 34.0635 137.043 34.1527 136.891 34.2647C136.74 34.3767 136.617 34.5192 136.524 34.6902C136.432 34.8619 136.385 35.0799 136.385 35.3436C136.385 35.5946 136.432 35.8063 136.524 35.9773C136.617 36.149 136.743 36.2845 136.9 36.3831C137.058 36.4822 137.244 36.5513 137.455 36.5913C137.666 36.6307 137.885 36.6503 138.109 36.6503C138.663 36.6503 139.092 36.5583 139.396 36.3733C139.698 36.1883 139.923 35.9675 140.069 35.7101C140.213 35.4528 140.302 35.1922 140.336 34.9279C140.368 34.6642 140.386 34.4525 140.386 34.2948V33.2458ZM133.891 31.1663C133.93 30.5065 134.096 29.9585 134.386 29.5231C134.676 29.0878 135.047 28.7381 135.495 28.4737C135.944 28.21 136.448 28.0222 137.01 27.9095C137.571 27.7982 138.136 27.7413 138.703 27.7413C139.218 27.7413 139.738 27.7775 140.266 27.8505C140.795 27.9228 141.276 28.065 141.712 28.276C142.148 28.4871 142.504 28.7806 142.78 29.1573C143.058 29.533 143.197 30.0312 143.197 30.6519V35.9773C143.197 36.439 143.223 36.8817 143.275 37.3034C143.329 37.7261 143.421 38.0431 143.553 38.2541H140.702C140.649 38.0958 140.607 37.9346 140.573 37.7693C140.54 37.6043 140.517 37.4361 140.505 37.2644C140.055 37.7261 139.528 38.0494 138.92 38.2345C138.314 38.4188 137.692 38.5115 137.058 38.5115C136.571 38.5115 136.115 38.4518 135.693 38.3335C135.271 38.2152 134.901 38.0298 134.584 37.7787C134.267 37.5288 134.019 37.2117 133.841 36.829C133.664 36.4463 133.575 35.9906 133.575 35.4629C133.575 34.8822 133.676 34.4037 133.882 34.027C134.085 33.6513 134.351 33.3515 134.673 33.1264C134.997 32.9021 135.367 32.7339 135.782 32.6215C136.198 32.5095 136.617 32.4204 137.039 32.3547C137.463 32.2887 137.878 32.2353 138.287 32.196C138.696 32.156 139.059 32.0974 139.376 32.018C139.693 31.939 139.942 31.8231 140.128 31.6711C140.313 31.5198 140.398 31.299 140.386 31.0079C140.386 30.7042 140.336 30.4641 140.236 30.285C140.138 30.107 140.007 29.969 139.841 29.8693C139.676 29.7707 139.485 29.7046 139.266 29.672C139.048 29.639 138.814 29.6218 138.565 29.6218C138.009 29.6218 137.575 29.7412 137.258 29.9789C136.941 30.2165 136.756 30.6119 136.702 31.1663H133.891Z" fill="#2E42FB"></path><path d="M147.79 28.019V29.9192H147.829C147.961 29.6025 148.14 29.3086 148.365 29.0379C148.589 28.7672 148.845 28.5369 149.136 28.3456C149.426 28.1542 149.738 28.0054 150.067 27.8997C150.396 27.7943 150.74 27.7413 151.096 27.7413C151.281 27.7413 151.486 27.775 151.71 27.8407V30.4542C151.578 30.4276 151.42 30.4044 151.234 30.3847C151.049 30.3644 150.871 30.3545 150.701 30.3545C150.186 30.3545 149.75 30.4409 149.394 30.6119C149.038 30.7836 148.751 31.0177 148.532 31.3148C148.315 31.6121 148.16 31.9587 148.067 32.3547C147.975 32.7507 147.928 33.1798 147.928 33.6418V38.2541H145.118V28.019H147.79Z" fill="#2E42FB"></path><path d="M157.095 29.8595C156.647 29.8595 156.269 29.962 155.967 30.1667C155.662 30.3714 155.415 30.6357 155.224 30.9591C155.032 31.2818 154.897 31.6392 154.818 32.0278C154.738 32.4168 154.699 32.803 154.699 33.1861C154.699 33.5554 154.738 33.9318 154.818 34.3145C154.897 34.6972 155.026 35.0434 155.204 35.3534C155.382 35.6638 155.623 35.9176 155.927 36.1163C156.23 36.3136 156.6 36.4126 157.035 36.4126C157.708 36.4126 158.226 36.2248 158.589 35.8491C158.952 35.4728 159.18 34.9679 159.272 34.3342H161.986C161.8 35.6933 161.271 36.7293 160.401 37.4424C159.53 38.1555 158.414 38.5115 157.054 38.5115C156.289 38.5115 155.587 38.3833 154.946 38.1253C154.306 37.8679 153.762 37.5081 153.314 37.0464C152.863 36.5843 152.515 36.0335 152.264 35.3934C152.012 34.7534 151.888 34.0501 151.888 33.2847C151.888 32.4927 152.004 31.7571 152.233 31.0771C152.464 30.3981 152.805 29.8107 153.253 29.3156C153.702 28.8209 154.25 28.4344 154.897 28.1567C155.543 27.88 156.283 27.7413 157.115 27.7413C157.722 27.7413 158.306 27.8203 158.867 27.9787C159.427 28.137 159.929 28.3782 160.371 28.7016C160.814 29.0256 161.174 29.428 161.45 29.9093C161.727 30.391 161.886 30.9623 161.925 31.622H159.173C158.989 30.4472 158.295 29.8595 157.095 29.8595Z" fill="#2E42FB"></path><path d="M169.498 30.4142C169.162 30.0449 168.651 29.8595 167.964 29.8595C167.515 29.8595 167.143 29.936 166.845 30.0873C166.548 30.2397 166.312 30.4275 166.134 30.6519C165.954 30.8762 165.829 31.1136 165.756 31.3646C165.683 31.616 165.64 31.8393 165.628 32.0377H170.201C170.07 31.3249 169.834 30.7836 169.498 30.4142ZM166.32 35.7993C166.742 36.2087 167.351 36.4126 168.142 36.4126C168.71 36.4126 169.197 36.2708 169.607 35.9871C170.016 35.7041 170.267 35.4032 170.36 35.0862H172.834C172.439 36.3136 171.832 37.1921 171.013 37.7191C170.194 38.2478 169.204 38.5115 168.044 38.5115C167.237 38.5115 166.513 38.3833 165.865 38.1253C165.219 37.8679 164.67 37.5021 164.222 37.0267C163.773 36.5513 163.427 35.9843 163.184 35.3239C162.938 34.6642 162.817 33.9378 162.817 33.1461C162.817 32.3814 162.941 31.6683 163.193 31.0079C163.444 30.3482 163.8 29.7777 164.263 29.2953C164.723 28.8136 165.276 28.4344 165.915 28.1567C166.555 27.88 167.264 27.7413 168.044 27.7413C168.914 27.7413 169.673 27.9095 170.321 28.2466C170.967 28.5829 171.497 29.0355 171.914 29.6025C172.329 30.1702 172.63 30.8173 172.815 31.543C173 32.269 173.066 33.0274 173.013 33.8198H165.628C165.667 34.7302 165.898 35.3906 166.32 35.7993Z" fill="#2E42FB"></path><path d="M177.308 24.1183H174.497V38.2541H177.308V24.1183Z" fill="#2E42FB"></path><path d="M181.881 34.344C181.962 34.7337 182.097 35.0838 182.287 35.3934C182.48 35.7041 182.732 35.9513 183.05 36.1356C183.366 36.321 183.763 36.4126 184.238 36.4126C184.714 36.4126 185.113 36.321 185.436 36.1356C185.759 35.9513 186.017 35.7041 186.208 35.3934C186.4 35.0838 186.535 34.7337 186.613 34.344C186.693 33.955 186.733 33.5554 186.733 33.1461C186.733 32.7374 186.693 32.335 186.613 31.939C186.535 31.543 186.4 31.1929 186.208 30.8896C186.017 30.5859 185.759 30.3384 185.436 30.147C185.113 29.9557 184.714 29.8595 184.238 29.8595C183.763 29.8595 183.366 29.9557 183.05 30.147C182.732 30.3384 182.48 30.5859 182.287 30.8896C182.097 31.1929 181.962 31.543 181.881 31.939C181.803 32.335 181.764 32.7374 181.764 33.1461C181.764 33.5554 181.803 33.955 181.881 34.344ZM179.329 30.9187C179.578 30.2531 179.935 29.685 180.397 29.2159C180.859 28.7479 181.413 28.3849 182.06 28.1275C182.708 27.8702 183.432 27.7413 184.238 27.7413C185.043 27.7413 185.773 27.8702 186.426 28.1275C187.08 28.3849 187.637 28.7479 188.098 29.2159C188.561 29.685 188.917 30.2531 189.168 30.9187C189.419 31.5855 189.544 32.3277 189.544 33.1461C189.544 33.9648 189.419 34.7035 189.168 35.3639C188.917 36.0236 188.561 36.5878 188.098 37.0562C187.637 37.5253 187.08 37.8848 186.426 38.1358C185.773 38.3858 185.043 38.5115 184.238 38.5115C183.432 38.5115 182.708 38.3858 182.06 38.1358C181.413 37.8848 180.859 37.5253 180.397 37.0562C179.935 36.5878 179.578 36.0236 179.329 35.3639C179.078 34.7035 178.951 33.9648 178.951 33.1461C178.951 32.3277 179.078 31.5855 179.329 30.9187Z" fill="#2E42FB"></path><path d="M193.781 28.019V29.4438H193.841C194.198 28.8501 194.658 28.4175 195.226 28.1468C195.794 27.8772 196.375 27.7413 196.969 27.7413C197.72 27.7413 198.338 27.8435 198.819 28.0482C199.301 28.2529 199.681 28.5369 199.958 28.8992C200.236 29.263 200.43 29.7046 200.542 30.2264C200.654 30.7477 200.711 31.3249 200.711 31.9587V38.2541H197.898V32.473C197.898 31.6283 197.767 30.9981 197.503 30.5824C197.24 30.1667 196.77 29.9585 196.097 29.9585C195.331 29.9585 194.778 30.1863 194.434 30.6421C194.09 31.0967 193.92 31.8463 193.92 32.8887V38.2541H191.109V28.019H193.781Z" fill="#2E42FB"></path><path d="M208.966 33.2458C208.847 33.3515 208.699 33.4333 208.521 33.4929C208.341 33.5519 208.151 33.6014 207.946 33.6418C207.741 33.6808 207.528 33.7138 207.304 33.7401C207.077 33.7672 206.853 33.7991 206.63 33.8391C206.419 33.8784 206.21 33.9318 206.006 33.9975C205.801 34.0635 205.623 34.1527 205.472 34.2647C205.32 34.3767 205.198 34.5192 205.105 34.6902C205.012 34.8619 204.966 35.0799 204.966 35.3436C204.966 35.5946 205.012 35.8063 205.105 35.9773C205.198 36.149 205.324 36.2845 205.48 36.3831C205.639 36.4822 205.824 36.5513 206.036 36.5913C206.246 36.6307 206.465 36.6503 206.689 36.6503C207.243 36.6503 207.672 36.5583 207.977 36.3733C208.279 36.1883 208.504 35.9675 208.649 35.7101C208.794 35.4528 208.883 35.1922 208.916 34.9279C208.948 34.6642 208.966 34.4525 208.966 34.2948V33.2458ZM202.472 31.1663C202.511 30.5065 202.676 29.9585 202.967 29.5231C203.257 29.0878 203.627 28.7381 204.076 28.4737C204.525 28.21 205.028 28.0222 205.591 27.9095C206.152 27.7982 206.716 27.7413 207.284 27.7413C207.799 27.7413 208.318 27.7775 208.847 27.8505C209.376 27.9228 209.856 28.065 210.292 28.276C210.729 28.4871 211.085 28.7806 211.36 29.1573C211.638 29.533 211.777 30.0312 211.777 30.6519V35.9773C211.777 36.439 211.804 36.8817 211.855 37.3034C211.909 37.7261 212.002 38.0431 212.133 38.2541H209.283C209.23 38.0958 209.187 37.9346 209.153 37.7693C209.121 37.6043 209.098 37.4361 209.086 37.2644C208.635 37.7261 208.108 38.0494 207.501 38.2345C206.894 38.4188 206.273 38.5115 205.639 38.5115C205.151 38.5115 204.695 38.4518 204.274 38.3335C203.852 38.2152 203.481 38.0298 203.164 37.7787C202.847 37.5288 202.6 37.2117 202.422 36.829C202.244 36.4463 202.155 35.9906 202.155 35.4629C202.155 34.8822 202.257 34.4037 202.463 34.027C202.666 33.6513 202.931 33.3515 203.253 33.1264C203.577 32.9021 203.948 32.7339 204.362 32.6215C204.779 32.5095 205.198 32.4204 205.619 32.3547C206.043 32.2887 206.458 32.2353 206.867 32.196C207.276 32.156 207.64 32.0974 207.957 32.018C208.274 31.939 208.523 31.8231 208.708 31.6711C208.893 31.5198 208.979 31.299 208.966 31.0079C208.966 30.7042 208.916 30.4641 208.817 30.285C208.719 30.107 208.587 29.969 208.421 29.8693C208.256 29.7707 208.065 29.7046 207.847 29.672C207.629 29.639 207.394 29.6218 207.145 29.6218C206.589 29.6218 206.155 29.7412 205.838 29.9789C205.521 30.2165 205.336 30.6119 205.283 31.1663H202.472Z" fill="#2E42FB"></path><path d="M103.059 58.1457L102.897 55.7968H102.86C102.644 56.255 102.375 56.6493 102.057 56.9807C101.736 57.3118 101.386 57.5832 100.999 57.7932C100.613 58.0042 100.202 58.1572 99.7622 58.2545C99.3226 58.3503 98.8665 58.3984 98.3985 58.3984C97.3853 58.3984 96.4974 58.2152 95.7334 57.8476C94.968 57.48 94.3325 56.9895 93.8269 56.3754C93.3214 55.761 92.9418 55.0501 92.6891 54.2433C92.4349 53.4361 92.3085 52.5868 92.3085 51.6961C92.3085 50.8039 92.4349 49.955 92.6891 49.1485C92.9418 48.341 93.3214 47.6272 93.8269 47.0069C94.3325 46.3865 94.968 45.8932 95.7334 45.5256C96.4974 45.158 97.3853 44.9747 98.3985 44.9747C99.0712 44.9747 99.7109 45.0646 100.312 45.2454C100.916 45.4259 101.452 45.6973 101.921 46.0586C102.392 46.4202 102.789 46.8654 103.114 47.3959C103.438 47.9253 103.661 48.5457 103.782 49.256H102.554C102.518 48.8831 102.393 48.5067 102.183 48.1272C101.972 47.748 101.688 47.4022 101.334 47.0887C100.978 46.7751 100.555 46.5188 100.06 46.3205C99.5663 46.1221 99.0126 46.0224 98.3985 46.0224C97.5422 46.0224 96.8088 46.1853 96.193 46.5101C95.5786 46.8348 95.0765 47.2656 94.685 47.8017C94.2932 48.3386 94.0049 48.9438 93.8178 49.6176C93.631 50.2924 93.5383 50.9847 93.5383 51.6961C93.5383 52.3947 93.631 53.0836 93.8178 53.7647C94.0049 54.4448 94.2932 55.0536 94.685 55.5893C95.0765 56.1251 95.5786 56.5559 96.193 56.881C96.8088 57.2065 97.5422 57.3687 98.3985 57.3687C99.1091 57.3687 99.7443 57.2511 100.304 57.0162C100.864 56.782 101.336 56.4537 101.722 56.0317C102.107 55.6108 102.397 55.1104 102.589 54.5318C102.782 53.9543 102.872 53.3213 102.86 52.6349H98.4698V51.5872H103.944V58.1457H103.059Z" fill="#2E42FB"></path><path d="M112.573 51.5873C112.434 51.1895 112.238 50.837 111.985 50.5298C111.733 50.2229 111.425 49.9765 111.063 49.7893C110.702 49.6032 110.292 49.5098 109.835 49.5098C109.365 49.5098 108.95 49.6032 108.589 49.7893C108.227 49.9765 107.919 50.2229 107.667 50.5298C107.414 50.837 107.213 51.193 107.061 51.5964C106.91 52.0005 106.812 52.4127 106.764 52.8337H112.797C112.787 52.4001 112.71 51.9844 112.573 51.5873ZM106.935 55.0652C107.049 55.5048 107.234 55.899 107.487 56.2491C107.74 56.5977 108.058 56.887 108.444 57.1159C108.829 57.3445 109.294 57.4597 109.835 57.4597C110.666 57.4597 111.316 57.2423 111.786 56.8087C112.256 56.3755 112.582 55.7969 112.761 55.074H113.901C113.659 56.1343 113.215 56.953 112.573 57.5316C111.928 58.1092 111.015 58.3985 109.835 58.3985C109.1 58.3985 108.464 58.2696 107.928 58.0105C107.392 57.7514 106.956 57.3961 106.62 56.9443C106.281 56.4927 106.032 55.9686 105.869 55.3721C105.707 54.7759 105.624 54.1467 105.624 53.4842C105.624 52.8702 105.707 52.2673 105.869 51.6771C106.032 51.0873 106.281 50.5603 106.62 50.0965C106.956 49.6327 107.392 49.2599 107.928 48.9765C108.464 48.6936 109.1 48.5521 109.835 48.5521C110.581 48.5521 111.22 48.7023 111.751 49.0036C112.279 49.3052 112.71 49.6994 113.041 50.1871C113.372 50.6748 113.611 51.2348 113.755 51.8667C113.901 52.4998 113.96 53.1405 113.937 53.7914H106.764C106.764 54.2008 106.821 54.6253 106.935 55.0652Z" fill="#2E42FB"></path><path d="M116.591 48.8224V50.4311H116.628C116.845 49.8652 117.23 49.4101 117.784 49.0664C118.337 48.7237 118.946 48.5521 119.608 48.5521C120.26 48.5521 120.805 48.6367 121.245 48.8049C121.684 48.9741 122.037 49.2114 122.302 49.5186C122.565 49.8258 122.752 50.2022 122.861 50.6474C122.97 51.0933 123.023 51.5936 123.023 52.1473V58.1457H121.885V52.3281C121.885 51.9303 121.85 51.5599 121.777 51.2172C121.706 50.8735 121.579 50.5754 121.398 50.3226C121.218 50.0698 120.974 49.8711 120.666 49.7261C120.358 49.5818 119.977 49.5098 119.519 49.5098C119.06 49.5098 118.655 49.5906 118.3 49.7539C117.944 49.9157 117.643 50.139 117.396 50.4223C117.148 50.7053 116.956 51.0427 116.817 51.4335C116.678 51.825 116.603 52.2498 116.591 52.7073V58.1457H115.453V48.8224H116.591Z" fill="#2E42FB"></path><path d="M131.652 51.5873C131.513 51.1895 131.317 50.837 131.064 50.5298C130.812 50.2229 130.504 49.9765 130.142 49.7893C129.781 49.6032 129.371 49.5098 128.914 49.5098C128.444 49.5098 128.029 49.6032 127.667 49.7893C127.306 49.9765 126.998 50.2229 126.745 50.5298C126.493 50.837 126.292 51.193 126.14 51.5964C125.989 52.0005 125.891 52.4127 125.843 52.8337H131.876C131.865 52.4001 131.789 51.9844 131.652 51.5873ZM126.014 55.0652C126.128 55.5048 126.313 55.899 126.566 56.2491C126.818 56.5977 127.137 56.887 127.524 57.1159C127.908 57.3445 128.372 57.4597 128.914 57.4597C129.745 57.4597 130.395 57.2423 130.865 56.8087C131.335 56.3755 131.66 55.7969 131.841 55.074H132.98C132.738 56.1343 132.295 56.953 131.652 57.5316C131.007 58.1092 130.094 58.3985 128.914 58.3985C128.179 58.3985 127.543 58.2696 127.007 58.0105C126.471 57.7514 126.035 57.3961 125.699 56.9443C125.36 56.4927 125.111 55.9686 124.947 55.3721C124.785 54.7759 124.704 54.1467 124.704 53.4842C124.704 52.8702 124.785 52.2673 124.947 51.6771C125.111 51.0873 125.36 50.5603 125.699 50.0965C126.035 49.6327 126.471 49.2599 127.007 48.9765C127.543 48.6936 128.179 48.5521 128.914 48.5521C129.66 48.5521 130.299 48.7023 130.829 49.0036C131.358 49.3052 131.789 49.6994 132.12 50.1871C132.451 50.6748 132.69 51.2348 132.834 51.8667C132.98 52.4998 133.038 53.1405 133.016 53.7914H125.843C125.843 54.2008 125.9 54.6253 126.014 55.0652Z" fill="#2E42FB"></path><path d="M135.599 48.8224V51.009H135.636C135.924 50.2503 136.373 49.6664 136.982 49.256C137.589 48.8476 138.315 48.6609 139.159 48.6963V49.8346C138.641 49.8107 138.171 49.8802 137.749 50.0421C137.327 50.205 136.964 50.4374 136.656 50.7383C136.35 51.0388 136.111 51.3976 135.942 51.8137C135.773 52.2283 135.689 52.683 135.689 53.177V58.1457H134.552V48.8224H135.599Z" fill="#2E42FB"></path><path d="M146.168 53.0506C146.095 53.1833 145.958 53.2795 145.753 53.3399C145.548 53.4007 145.367 53.4424 145.21 53.4667C144.728 53.5509 144.231 53.6257 143.72 53.6924C143.207 53.7584 142.741 53.8581 142.319 53.9898C141.897 54.1232 141.552 54.3128 141.281 54.5596C141.01 54.8061 140.873 55.1586 140.873 55.6161C140.873 55.9054 140.93 56.1617 141.046 56.3843C141.16 56.6069 141.313 56.8 141.507 56.9622C141.7 57.1247 141.922 57.2487 142.175 57.3333C142.427 57.4168 142.688 57.4597 142.953 57.4597C143.386 57.4597 143.802 57.3929 144.199 57.2602C144.596 57.1286 144.943 56.9351 145.237 56.6823C145.533 56.4295 145.767 56.1223 145.942 55.7611C146.116 55.3998 146.203 54.9904 146.203 54.5319V53.0506H146.168ZM140.476 50.2682C140.669 49.8711 140.93 49.5453 141.263 49.2925C141.594 49.0397 141.983 48.8529 142.427 48.7329C142.873 48.6125 143.368 48.5521 143.909 48.5521C144.318 48.5521 144.728 48.591 145.139 48.6693C145.548 48.748 145.915 48.8947 146.241 49.1121C146.565 49.329 146.83 49.6327 147.035 50.0242C147.24 50.416 147.343 50.9251 147.343 51.5508V56.5019C147.343 56.9594 147.565 57.1883 148.011 57.1883C148.144 57.1883 148.264 57.164 148.372 57.1159V58.0737C148.24 58.0976 148.123 58.1155 148.019 58.1278C147.918 58.1397 147.788 58.1457 147.631 58.1457C147.343 58.1457 147.11 58.1067 146.935 58.0284C146.761 57.9501 146.626 57.8388 146.529 57.6945C146.433 57.5495 146.369 57.3775 146.339 57.1791C146.311 56.9808 146.294 56.7606 146.294 56.5194H146.259C146.054 56.8214 145.846 57.0893 145.636 57.3234C145.424 57.5583 145.189 57.7542 144.931 57.9108C144.671 58.0674 144.377 58.1875 144.046 58.2724C143.713 58.3567 143.32 58.3985 142.862 58.3985C142.427 58.3985 142.022 58.3469 141.642 58.2454C141.263 58.1432 140.93 57.9803 140.649 57.7577C140.364 57.5341 140.142 57.2511 139.98 56.9084C139.818 56.5651 139.736 56.1582 139.736 55.688C139.736 55.0385 139.88 54.5291 140.17 54.1618C140.459 53.7949 140.842 53.5144 141.317 53.3213C141.792 53.1293 142.328 52.9937 142.925 52.9155C143.521 52.8372 144.126 52.7613 144.74 52.6893C144.982 52.6651 145.192 52.6349 145.374 52.5995C145.554 52.563 145.705 52.4998 145.824 52.4088C145.945 52.3189 146.038 52.1954 146.105 52.0388C146.172 51.8829 146.203 51.6771 146.203 51.4244C146.203 51.0389 146.141 50.7232 146.015 50.4764C145.889 50.2289 145.714 50.0333 145.49 49.889C145.267 49.7437 145.009 49.645 144.713 49.5906C144.418 49.5365 144.103 49.5098 143.765 49.5098C143.042 49.5098 142.453 49.6808 141.995 50.0242C141.536 50.3679 141.296 50.9188 141.272 51.6771H140.133C140.17 51.1351 140.284 50.666 140.476 50.2682Z" fill="#2E42FB"></path><path d="M150.775 45.2454H149.638V58.1457H150.775V45.2454Z" fill="#2E42FB"></path><path d="M154.118 48.8224V58.1457H152.979V48.8224H154.118ZM154.118 45.2454V47.0701H152.979V45.2454H154.118Z" fill="#2E42FB"></path><path d="M160.008 48.8224V49.7805H158.111V56.0682C158.111 56.4411 158.162 56.7339 158.265 56.9442C158.366 57.1549 158.622 57.2725 159.032 57.2967C159.358 57.2967 159.684 57.2788 160.008 57.2423V58.2001C159.839 58.2001 159.671 58.2064 159.502 58.218C159.333 58.2303 159.165 58.2359 158.997 58.2359C158.238 58.2359 157.708 58.0888 157.407 57.7932C157.106 57.4986 156.96 56.953 156.972 56.1581V49.7805H155.347V48.8224H156.972V46.0224H158.111V48.8224H160.008Z" fill="#2E42FB"></path><path d="M167.579 53.0506C167.506 53.1833 167.367 53.2795 167.163 53.3399C166.958 53.4007 166.778 53.4424 166.621 53.4667C166.139 53.5509 165.642 53.6257 165.129 53.6924C164.619 53.7584 164.152 53.8581 163.73 53.9898C163.308 54.1232 162.961 54.3128 162.69 54.5596C162.42 54.8061 162.285 55.1586 162.285 55.6161C162.285 55.9054 162.341 56.1617 162.455 56.3843C162.571 56.6069 162.724 56.8 162.917 56.9622C163.109 57.1247 163.333 57.2487 163.586 57.3333C163.839 57.4168 164.097 57.4597 164.362 57.4597C164.796 57.4597 165.211 57.3929 165.608 57.2602C166.007 57.1286 166.352 56.9351 166.648 56.6823C166.944 56.4295 167.178 56.1223 167.353 55.7611C167.527 55.3998 167.615 54.9904 167.615 54.5319V53.0506H167.579ZM161.887 50.2682C162.08 49.8711 162.341 49.5453 162.673 49.2925C163.004 49.0397 163.392 48.8529 163.839 48.7329C164.284 48.6125 164.777 48.5521 165.32 48.5521C165.73 48.5521 166.139 48.591 166.548 48.6693C166.958 48.748 167.325 48.8947 167.65 49.1121C167.976 49.329 168.241 49.6327 168.446 50.0242C168.651 50.416 168.752 50.9251 168.752 51.5508V56.5019C168.752 56.9594 168.975 57.1883 169.422 57.1883C169.553 57.1883 169.674 57.164 169.783 57.1159V58.0737C169.649 58.0976 169.532 58.1155 169.431 58.1278C169.328 58.1397 169.197 58.1457 169.042 58.1457C168.752 58.1457 168.521 58.1067 168.347 58.0284C168.172 57.9501 168.037 57.8388 167.94 57.6945C167.842 57.5495 167.78 57.3775 167.75 57.1791C167.72 56.9808 167.705 56.7606 167.705 56.5194H167.668C167.463 56.8214 167.255 57.0893 167.045 57.3234C166.835 57.5583 166.6 57.7542 166.34 57.9108C166.082 58.0674 165.786 58.1875 165.455 58.2724C165.124 58.3567 164.729 58.3985 164.271 58.3985C163.839 58.3985 163.431 58.3469 163.052 58.2454C162.673 58.1432 162.341 57.9803 162.058 57.7577C161.775 57.5341 161.553 57.2511 161.391 56.9084C161.227 56.5651 161.147 56.1582 161.147 55.688C161.147 55.0385 161.291 54.5291 161.58 54.1618C161.868 53.7949 162.251 53.5144 162.728 53.3213C163.203 53.1293 163.739 52.9937 164.335 52.9155C164.932 52.8372 165.537 52.7613 166.152 52.6893C166.391 52.6651 166.603 52.6349 166.783 52.5995C166.963 52.563 167.115 52.4998 167.236 52.4088C167.355 52.3189 167.449 52.1954 167.515 52.0388C167.581 51.8829 167.615 51.6771 167.615 51.4244C167.615 51.0389 167.551 50.7232 167.424 50.4764C167.297 50.2289 167.123 50.0333 166.901 49.889C166.678 49.7437 166.418 49.645 166.125 49.5906C165.829 49.5365 165.512 49.5098 165.175 49.5098C164.453 49.5098 163.862 49.6808 163.405 50.0242C162.947 50.3679 162.706 50.9188 162.682 51.6771H161.544C161.58 51.1351 161.694 50.666 161.887 50.2682Z" fill="#2E42FB"></path><path d="M174.734 48.8224V49.7805H172.836V56.0682C172.836 56.4411 172.888 56.7339 172.989 56.9442C173.092 57.1549 173.349 57.2725 173.758 57.2967C174.082 57.2967 174.408 57.2788 174.734 57.2423V58.2001C174.565 58.2001 174.396 58.2064 174.228 58.218C174.059 58.2303 173.89 58.2359 173.721 58.2359C172.962 58.2359 172.432 58.0888 172.131 57.7932C171.83 57.4986 171.686 56.953 171.699 56.1581V49.7805H170.071V48.8224H171.699V46.0224H172.836V48.8224H174.734Z" fill="#2E42FB"></path><path d="M181.824 54.9209C181.939 55.3969 182.118 55.8218 182.366 56.1946C182.613 56.5678 182.928 56.8719 183.314 57.1071C183.699 57.342 184.164 57.4596 184.705 57.4596C185.309 57.4596 185.818 57.342 186.232 57.1071C186.647 56.8719 186.986 56.5678 187.244 56.1946C187.504 55.8218 187.69 55.3969 187.805 54.9209C187.918 54.4448 187.975 53.9666 187.975 53.4842C187.975 53.0025 187.918 52.5236 187.805 52.0475C187.69 51.5721 187.504 51.1477 187.244 50.7737C186.986 50.4009 186.647 50.0965 186.232 49.8612C185.818 49.6264 185.309 49.5098 184.705 49.5098C184.164 49.5098 183.699 49.6264 183.314 49.8612C182.928 50.0965 182.613 50.4009 182.366 50.7737C182.118 51.1477 181.939 51.5721 181.824 52.0475C181.709 52.5236 181.652 53.0025 181.652 53.4842C181.652 53.9666 181.709 54.4448 181.824 54.9209ZM188.066 58.1457V56.3754H188.031C187.909 56.6763 187.731 56.953 187.497 57.2065C187.263 57.4596 186.995 57.6731 186.693 57.8476C186.393 58.0221 186.07 58.1572 185.727 58.2545C185.383 58.3503 185.043 58.3984 184.705 58.3984C183.995 58.3984 183.379 58.2696 182.853 58.0105C182.33 57.7514 181.894 57.3961 181.543 56.9442C181.194 56.4927 180.936 55.9685 180.767 55.372C180.598 54.7759 180.514 54.1467 180.514 53.4842C180.514 52.822 180.598 52.1925 180.767 51.5964C180.936 50.9998 181.194 50.4764 181.543 50.0242C181.894 49.573 182.33 49.2142 182.853 48.9491C183.379 48.6847 183.995 48.552 184.705 48.552C185.055 48.552 185.396 48.5938 185.727 48.6784C186.058 48.763 186.368 48.8919 186.658 49.0664C186.946 49.2419 187.203 49.4554 187.425 49.7082C187.648 49.961 187.819 50.2566 187.94 50.5929H187.975V45.2454H189.115V58.1457H188.066Z" fill="#2E42FB"></path><path d="M197.759 51.5873C197.621 51.1895 197.425 50.837 197.172 50.5298C196.919 50.2229 196.613 49.9765 196.252 49.7893C195.89 49.6032 195.481 49.5098 195.023 49.5098C194.553 49.5098 194.137 49.6032 193.775 49.7893C193.414 49.9765 193.108 50.2229 192.855 50.5298C192.602 50.837 192.399 51.193 192.25 51.5964C192.098 52.0005 191.999 52.4127 191.951 52.8337H197.986C197.973 52.4001 197.898 51.9844 197.759 51.5873ZM192.123 55.0652C192.237 55.5048 192.421 55.899 192.673 56.2491C192.926 56.5977 193.245 56.887 193.631 57.1159C194.017 57.3445 194.48 57.4597 195.023 57.4597C195.853 57.4597 196.505 57.2423 196.975 56.8087C197.443 56.3755 197.768 55.7969 197.95 55.074H199.088C198.847 56.1343 198.404 56.953 197.759 57.5316C197.115 58.1092 196.203 58.3985 195.023 58.3985C194.288 58.3985 193.653 58.2696 193.117 58.0105C192.581 57.7514 192.143 57.3961 191.806 56.9443C191.47 56.4927 191.219 55.9686 191.057 55.3721C190.893 54.7759 190.813 54.1467 190.813 53.4842C190.813 52.8702 190.893 52.2673 191.057 51.6771C191.219 51.0873 191.47 50.5603 191.806 50.0965C192.143 49.6327 192.581 49.2599 193.117 48.9765C193.653 48.6936 194.288 48.5521 195.023 48.5521C195.769 48.5521 196.408 48.7023 196.937 49.0036C197.468 49.3052 197.898 49.6994 198.23 50.1871C198.561 50.6748 198.799 51.2348 198.943 51.8667C199.088 52.4998 199.148 53.1405 199.123 53.7914H191.951C191.951 54.2008 192.007 54.6253 192.123 55.0652Z" fill="#2E42FB"></path><path d="M214.291 47.8203C214.045 47.4285 213.743 47.1002 213.388 46.8348C213.032 46.5704 212.641 46.3686 212.213 46.2295C211.786 46.0916 211.338 46.0224 210.867 46.0224C210.013 46.0224 209.278 46.1853 208.664 46.5101C208.05 46.8348 207.545 47.2656 207.156 47.8017C206.764 48.3386 206.474 48.9438 206.287 49.6176C206.1 50.2924 206.007 50.9847 206.007 51.6961C206.007 52.3947 206.1 53.0836 206.287 53.7647C206.474 54.4448 206.764 55.0536 207.156 55.5893C207.545 56.1251 208.05 56.5559 208.664 56.881C209.278 57.2065 210.013 57.3687 210.867 57.3687C211.469 57.3687 212.012 57.2602 212.495 57.0436C212.975 56.8266 213.39 56.532 213.741 56.1581C214.09 55.7853 214.373 55.3481 214.59 54.8489C214.807 54.3486 214.944 53.8093 215.005 53.2314H216.233C216.15 54.0263 215.963 54.7429 215.674 55.3811C215.384 56.0201 215.012 56.5622 214.554 57.0071C214.095 57.4533 213.558 57.797 212.936 58.0372C212.317 58.2784 211.626 58.3984 210.867 58.3984C209.856 58.3984 208.968 58.2152 208.202 57.8476C207.437 57.48 206.803 56.9895 206.296 56.3754C205.79 55.761 205.411 55.0501 205.158 54.2433C204.906 53.4361 204.779 52.5868 204.779 51.6961C204.779 50.8039 204.906 49.955 205.158 49.1485C205.411 48.341 205.79 47.6272 206.296 47.0069C206.803 46.3865 207.437 45.8932 208.202 45.5256C208.968 45.158 209.856 44.9747 210.867 44.9747C211.482 44.9747 212.082 45.0646 212.665 45.2454C213.249 45.4259 213.78 45.6948 214.255 46.0491C214.731 46.4051 215.129 46.8411 215.448 47.3594C215.767 47.8772 215.968 48.4737 216.053 49.1485H214.825C214.717 48.6542 214.538 48.2122 214.291 47.8203Z" fill="#2E42FB"></path><path d="M223.822 53.0506C223.749 53.1833 223.613 53.2795 223.407 53.3399C223.203 53.4007 223.021 53.4424 222.865 53.4667C222.382 53.5509 221.886 53.6257 221.375 53.6924C220.862 53.7584 220.395 53.8581 219.974 53.9898C219.551 54.1232 219.206 54.3128 218.936 54.5596C218.665 54.8061 218.528 55.1586 218.528 55.6161C218.528 55.9054 218.585 56.1617 218.701 56.3843C218.814 56.6069 218.968 56.8 219.162 56.9622C219.354 57.1247 219.577 57.2487 219.829 57.3333C220.082 57.4168 220.342 57.4597 220.607 57.4597C221.04 57.4597 221.456 57.3929 221.854 57.2602C222.25 57.1286 222.598 56.9351 222.891 56.6823C223.187 56.4295 223.422 56.1223 223.596 55.7611C223.771 55.3998 223.858 54.9904 223.858 54.5319V53.0506H223.822ZM218.131 50.2682C218.323 49.8711 218.585 49.5453 218.918 49.2925C219.249 49.0397 219.637 48.8529 220.082 48.7329C220.527 48.6125 221.022 48.5521 221.563 48.5521C221.973 48.5521 222.382 48.591 222.793 48.6693C223.203 48.748 223.57 48.8947 223.895 49.1121C224.219 49.329 224.485 49.6327 224.689 50.0242C224.894 50.416 224.997 50.9251 224.997 51.5508V56.5019C224.997 56.9594 225.22 57.1883 225.665 57.1883C225.798 57.1883 225.918 57.164 226.026 57.1159V58.0737C225.895 58.0976 225.777 58.1155 225.674 58.1278C225.572 58.1397 225.442 58.1457 225.285 58.1457C224.997 58.1457 224.764 58.1067 224.59 58.0284C224.415 57.9501 224.28 57.8388 224.184 57.6945C224.088 57.5495 224.024 57.3775 223.993 57.1791C223.965 56.9808 223.949 56.7606 223.949 56.5194H223.913C223.708 56.8214 223.5 57.0893 223.29 57.3234C223.078 57.5583 222.843 57.7542 222.585 57.9108C222.325 58.0674 222.032 58.1875 221.7 58.2724C221.367 58.3567 220.974 58.3985 220.516 58.3985C220.082 58.3985 219.676 58.3469 219.297 58.2454C218.918 58.1432 218.585 57.9803 218.304 57.7577C218.019 57.5341 217.796 57.2511 217.634 56.9084C217.472 56.5651 217.39 56.1582 217.39 55.688C217.39 55.0385 217.534 54.5291 217.825 54.1618C218.113 53.7949 218.496 53.5144 218.971 53.3213C219.447 53.1293 219.982 52.9937 220.579 52.9155C221.175 52.8372 221.781 52.7613 222.395 52.6893C222.636 52.6651 222.847 52.6349 223.029 52.5995C223.208 52.563 223.359 52.4998 223.479 52.4088C223.6 52.3189 223.692 52.1954 223.76 52.0388C223.826 51.8829 223.858 51.6771 223.858 51.4244C223.858 51.0389 223.795 50.7232 223.669 50.4764C223.543 50.2289 223.368 50.0333 223.144 49.889C222.922 49.7437 222.664 49.645 222.368 49.5906C222.072 49.5365 221.757 49.5098 221.419 49.5098C220.696 49.5098 220.107 49.6808 219.65 50.0242C219.19 50.3679 218.95 50.9188 218.927 51.6771H217.787C217.825 51.1351 217.939 50.666 218.131 50.2682Z" fill="#2E42FB"></path><path d="M230.977 48.8224V49.7805H229.081V56.0682C229.081 56.4411 229.131 56.7339 229.234 56.9442C229.336 57.1549 229.592 57.2725 230.002 57.2967C230.328 57.2967 230.653 57.2788 230.977 57.2423V58.2001C230.808 58.2001 230.641 58.2064 230.471 58.218C230.302 58.2303 230.135 58.2359 229.966 58.2359C229.208 58.2359 228.677 58.0888 228.376 57.7932C228.076 57.4986 227.93 56.953 227.942 56.1581V49.7805H226.317V48.8224H227.942V46.0224H229.081V48.8224H230.977Z" fill="#2E42FB"></path><path d="M238.549 53.0506C238.476 53.1833 238.337 53.2795 238.132 53.3399C237.927 53.4007 237.748 53.4424 237.591 53.4667C237.108 53.5509 236.612 53.6257 236.099 53.6924C235.588 53.7584 235.122 53.8581 234.7 53.9898C234.278 54.1232 233.93 54.3128 233.66 54.5596C233.389 54.8061 233.254 55.1586 233.254 55.6161C233.254 55.9054 233.311 56.1617 233.425 56.3843C233.541 56.6069 233.694 56.8 233.886 56.9622C234.078 57.1247 234.303 57.2487 234.555 57.3333C234.808 57.4168 235.067 57.4597 235.332 57.4597C235.766 57.4597 236.181 57.3929 236.578 57.2602C236.977 57.1286 237.322 56.9351 237.617 56.6823C237.913 56.4295 238.148 56.1223 238.322 55.7611C238.497 55.3998 238.584 54.9904 238.584 54.5319V53.0506H238.549ZM232.857 50.2682C233.05 49.8711 233.311 49.5453 233.642 49.2925C233.974 49.0397 234.362 48.8529 234.808 48.7329C235.253 48.6125 235.746 48.5521 236.289 48.5521C236.699 48.5521 237.108 48.591 237.518 48.6693C237.927 48.748 238.294 48.8947 238.62 49.1121C238.946 49.329 239.211 49.6327 239.416 50.0242C239.621 50.416 239.722 50.9251 239.722 51.5508V56.5019C239.722 56.9594 239.944 57.1883 240.391 57.1883C240.523 57.1883 240.644 57.164 240.753 57.1159V58.0737C240.619 58.0976 240.502 58.1155 240.4 58.1278C240.297 58.1397 240.167 58.1457 240.012 58.1457C239.722 58.1457 239.49 58.1067 239.316 58.0284C239.141 57.9501 239.006 57.8388 238.91 57.6945C238.812 57.5495 238.75 57.3775 238.719 57.1791C238.689 56.9808 238.675 56.7606 238.675 56.5194H238.638C238.433 56.8214 238.225 57.0893 238.014 57.3234C237.804 57.5583 237.57 57.7542 237.309 57.9108C237.051 58.0674 236.756 58.1875 236.425 58.2724C236.094 58.3567 235.699 58.3985 235.241 58.3985C234.808 58.3985 234.401 58.3469 234.021 58.2454C233.642 58.1432 233.311 57.9803 233.028 57.7577C232.745 57.5341 232.523 57.2511 232.36 56.9084C232.197 56.5651 232.116 56.1582 232.116 55.688C232.116 55.0385 232.261 54.5291 232.549 54.1618C232.838 53.7949 233.22 53.5144 233.697 53.3213C234.173 53.1293 234.708 52.9937 235.305 52.9155C235.902 52.8372 236.506 52.7613 237.121 52.6893C237.361 52.6651 237.573 52.6349 237.753 52.5995C237.933 52.563 238.084 52.4998 238.205 52.4088C238.324 52.3189 238.419 52.1954 238.484 52.0388C238.551 51.8829 238.584 51.6771 238.584 51.4244C238.584 51.0389 238.52 50.7232 238.394 50.4764C238.267 50.2289 238.093 50.0333 237.87 49.889C237.647 49.7437 237.388 49.645 237.094 49.5906C236.799 49.5365 236.482 49.5098 236.145 49.5098C235.422 49.5098 234.831 49.6808 234.374 50.0242C233.916 50.3679 233.676 50.9188 233.651 51.6771H232.513C232.549 51.1351 232.663 50.666 232.857 50.2682Z" fill="#2E42FB"></path><path d="M243.154 45.2454H242.017V58.1457H243.154V45.2454Z" fill="#2E42FB"></path><path d="M251.845 58.1456V56.4653H251.81C251.507 57.092 251.071 57.5705 250.499 57.902C249.926 58.233 249.29 58.3984 248.593 58.3984C248.002 58.3984 247.5 58.3173 247.085 58.1547C246.669 57.9918 246.332 57.7605 246.072 57.4596C245.814 57.1587 245.623 56.7911 245.504 56.3564C245.383 55.9232 245.322 55.4299 245.322 54.8755V48.8223H246.46V54.8931C246.485 55.7371 246.681 56.3754 247.048 56.8087C247.416 57.2423 248.051 57.4596 248.954 57.4596C249.447 57.4596 249.869 57.3535 250.218 57.1425C250.569 56.9326 250.857 56.6521 251.087 56.3031C251.315 55.9534 251.484 55.5528 251.593 55.1016C251.701 54.6494 251.754 54.1891 251.754 53.719V48.8223H252.892V58.1456H251.845Z" fill="#2E42FB"></path><path d="M256.162 48.8224V50.4311H256.2C256.417 49.8652 256.801 49.4101 257.355 49.0664C257.909 48.7237 258.518 48.5521 259.18 48.5521C259.831 48.5521 260.376 48.6367 260.816 48.8049C261.256 48.9741 261.608 49.2114 261.873 49.5186C262.137 49.8258 262.324 50.2022 262.432 50.6474C262.541 51.0933 262.594 51.5936 262.594 52.1473V58.1457H261.457V52.3281C261.457 51.9303 261.421 51.5599 261.348 51.2172C261.277 50.8735 261.151 50.5754 260.969 50.3226C260.789 50.0698 260.545 49.8711 260.237 49.7261C259.929 49.5818 259.548 49.5098 259.091 49.5098C258.632 49.5098 258.226 49.5906 257.872 49.7539C257.515 49.9157 257.215 50.139 256.967 50.4223C256.72 50.7053 256.528 51.0427 256.389 51.4335C256.25 51.825 256.175 52.2498 256.162 52.7073V58.1457H255.025V48.8224H256.162Z" fill="#2E42FB"></path><path d="M264.909 48.8223L267.98 56.7725L270.853 48.8223H271.991L267.944 59.5549C267.775 59.9527 267.618 60.2803 267.474 60.5394C267.328 60.7981 267.17 61.0028 266.995 61.1541C266.821 61.3048 266.616 61.4125 266.381 61.4792C266.146 61.5453 265.847 61.579 265.485 61.579C265.258 61.5663 265.08 61.5575 264.953 61.5512C264.827 61.5452 264.715 61.5245 264.619 61.488V60.5302C264.752 60.5545 264.88 60.5759 265.006 60.5934C265.133 60.6124 265.263 60.6212 265.397 60.6212C265.649 60.6212 265.856 60.5847 266.02 60.5127C266.182 60.4404 266.322 60.341 266.444 60.2143C266.565 60.0879 266.666 59.9348 266.751 59.7543C266.835 59.5735 266.926 59.3741 267.022 59.1578L267.419 58.1091L263.698 48.8223H264.909Z" fill="#2E42FB"></path><path d="M279.037 53.0506C278.964 53.1833 278.827 53.2795 278.622 53.3399C278.417 53.4007 278.236 53.4424 278.079 53.4667C277.597 53.5509 277.1 53.6257 276.589 53.6924C276.076 53.7584 275.61 53.8581 275.188 53.9898C274.766 54.1232 274.421 54.3128 274.15 54.5596C273.88 54.8061 273.742 55.1586 273.742 55.6161C273.742 55.9054 273.799 56.1617 273.915 56.3843C274.029 56.6069 274.182 56.8 274.376 56.9622C274.568 57.1247 274.791 57.2487 275.044 57.3333C275.297 57.4168 275.556 57.4597 275.822 57.4597C276.254 57.4597 276.671 57.3929 277.068 57.2602C277.465 57.1286 277.812 56.9351 278.106 56.6823C278.401 56.4295 278.636 56.1223 278.811 55.7611C278.985 55.3998 279.073 54.9904 279.073 54.5319V53.0506H279.037ZM273.345 50.2682C273.538 49.8711 273.799 49.5453 274.132 49.2925C274.464 49.0397 274.851 48.8529 275.297 48.7329C275.741 48.6125 276.237 48.5521 276.778 48.5521C277.187 48.5521 277.597 48.591 278.008 48.6693C278.417 48.748 278.784 48.8947 279.11 49.1121C279.434 49.329 279.699 49.6327 279.904 50.0242C280.108 50.416 280.212 50.9251 280.212 51.5508V56.5019C280.212 56.9594 280.435 57.1883 280.879 57.1883C281.013 57.1883 281.132 57.164 281.241 57.1159V58.0737C281.109 58.0976 280.991 58.1155 280.889 58.1278C280.787 58.1397 280.657 58.1457 280.5 58.1457C280.212 58.1457 279.978 58.1067 279.804 58.0284C279.63 57.9501 279.494 57.8388 279.398 57.6945C279.302 57.5495 279.238 57.3775 279.207 57.1791C279.179 56.9808 279.163 56.7606 279.163 56.5194H279.128C278.923 56.8214 278.715 57.0893 278.504 57.3234C278.293 57.5583 278.058 57.7542 277.8 57.9108C277.539 58.0674 277.246 58.1875 276.914 58.2724C276.582 58.3567 276.188 58.3985 275.731 58.3985C275.297 58.3985 274.891 58.3469 274.511 58.2454C274.132 58.1432 273.799 57.9803 273.518 57.7577C273.233 57.5341 273.011 57.2511 272.848 56.9084C272.687 56.5651 272.605 56.1582 272.605 55.688C272.605 55.0385 272.749 54.5291 273.039 54.1618C273.327 53.7949 273.71 53.5144 274.186 53.3213C274.661 53.1293 275.197 52.9937 275.793 52.9155C276.39 52.8372 276.995 52.7613 277.609 52.6893C277.851 52.6651 278.061 52.6349 278.243 52.5995C278.422 52.563 278.574 52.4998 278.693 52.4088C278.814 52.3189 278.907 52.1954 278.974 52.0388C279.04 51.8829 279.073 51.6771 279.073 51.4244C279.073 51.0389 279.01 50.7232 278.884 50.4764C278.757 50.2289 278.583 50.0333 278.358 49.889C278.136 49.7437 277.878 49.645 277.583 49.5906C277.287 49.5365 276.972 49.5098 276.633 49.5098C275.911 49.5098 275.321 49.6808 274.864 50.0242C274.405 50.3679 274.164 50.9188 274.141 51.6771H273.002C273.039 51.1351 273.153 50.666 273.345 50.2682Z" fill="#2E42FB"></path><path d="M99.8247 71.1547L97.3323 64.5412L94.7493 71.1547H99.8247ZM98.0727 63.313L103.132 76.2136H101.813L100.241 72.2027H94.3683L92.8158 76.2136H91.5143L96.6999 63.313H98.0727Z" fill="#2E42FB"></path><path d="M105.028 63.313V65.1377H103.891V63.313H105.028ZM105.028 66.8903V77.0629C105.028 77.4116 105.002 77.7426 104.948 78.0562C104.893 78.3693 104.791 78.6435 104.64 78.8784C104.489 79.1133 104.284 79.2997 104.026 79.4384C103.766 79.5775 103.438 79.6466 103.041 79.6466C102.908 79.6466 102.78 79.6403 102.653 79.628C102.527 79.6164 102.397 79.6101 102.263 79.6101V78.6713C102.361 78.6829 102.463 78.6917 102.572 78.698C102.68 78.7039 102.776 78.7004 102.86 78.6888C103.307 78.6888 103.59 78.5589 103.709 78.2998C103.83 78.0411 103.891 77.7188 103.891 77.3333V66.8903H105.028Z" fill="#2E42FB"></path><path d="M113.484 76.2136V74.5329H113.449C113.146 75.1596 112.71 75.6385 112.139 75.9696C111.565 76.3007 110.93 76.4664 110.232 76.4664C109.641 76.4664 109.139 76.3853 108.724 76.2224C108.307 76.0595 107.971 75.8281 107.711 75.5272C107.453 75.2263 107.262 74.8587 107.143 74.4244C107.022 73.9908 106.962 73.4979 106.962 72.9432V66.8903H108.099V72.9611C108.124 73.8048 108.32 74.443 108.687 74.8763C109.055 75.3099 109.69 75.5272 110.593 75.5272C111.086 75.5272 111.508 75.4212 111.857 75.2102C112.208 75.0002 112.496 74.7197 112.726 74.3711C112.954 74.021 113.123 73.6204 113.232 73.1693C113.34 72.7171 113.393 72.2568 113.393 71.787V66.8903H114.531V76.2136H113.484Z" fill="#2E42FB"></path><path d="M117.584 66.8903V68.4987H117.622C117.839 67.9327 118.223 67.4777 118.777 67.1343C119.331 66.7917 119.94 66.6196 120.602 66.6196C121.253 66.6196 121.798 66.7042 122.238 66.8724C122.678 67.0416 123.03 67.2793 123.295 67.5865C123.559 67.8934 123.746 68.2701 123.854 68.715C123.963 69.1612 124.016 69.6612 124.016 70.2148V76.2136H122.879V70.3956C122.879 69.9975 122.843 69.6274 122.77 69.2848C122.699 68.9411 122.573 68.643 122.391 68.3902C122.211 68.1374 121.967 67.939 121.659 67.7937C121.351 67.6494 120.97 67.5774 120.513 67.5774C120.054 67.5774 119.648 67.6585 119.294 67.8214C118.937 67.9833 118.637 68.2069 118.389 68.4899C118.142 68.7729 117.949 69.1103 117.81 69.5011C117.671 69.8929 117.597 70.3173 117.584 70.7748V76.2136H116.446V66.8903H117.584Z" fill="#2E42FB"></path><path d="M129.655 66.8903V67.8481H127.757V74.1358C127.757 74.509 127.808 74.8018 127.91 75.0118C128.013 75.2228 128.269 75.3401 128.679 75.3643C129.003 75.3643 129.329 75.3464 129.655 75.3099V76.2676C129.485 76.2676 129.316 76.274 129.149 76.2856C128.98 76.2978 128.81 76.3035 128.641 76.3035C127.883 76.3035 127.353 76.1564 127.052 75.8611C126.751 75.5662 126.606 75.0209 126.619 74.2257V67.8481H124.992V66.8903H126.619V64.09H127.757V66.8903H129.655Z" fill="#2E42FB"></path><path d="M137.009 71.1185C136.936 71.2509 136.797 71.3471 136.592 71.4078C136.387 71.4682 136.207 71.51 136.051 71.5339C135.568 71.6188 135.072 71.6936 134.559 71.7603C134.048 71.826 133.582 71.9257 133.16 72.0574C132.738 72.1911 132.391 72.3807 132.12 72.6272C131.85 72.8737 131.714 73.2262 131.714 73.684C131.714 73.9729 131.771 74.2296 131.885 74.4518C132.001 74.6744 132.154 74.8675 132.346 75.0297C132.538 75.1926 132.763 75.3162 133.016 75.4008C133.268 75.4844 133.527 75.5272 133.792 75.5272C134.226 75.5272 134.641 75.4605 135.038 75.3278C135.436 75.1961 135.782 75.003 136.078 74.7503C136.373 74.4971 136.608 74.1903 136.783 73.829C136.957 73.4674 137.044 73.058 137.044 72.5998V71.1185H137.009ZM131.317 68.3358C131.509 67.939 131.771 67.6129 132.102 67.3604C132.434 67.1076 132.822 66.9205 133.268 66.8004C133.713 66.6804 134.206 66.6196 134.749 66.6196C135.159 66.6196 135.568 66.659 135.978 66.7372C136.387 66.8155 136.754 66.9623 137.08 67.1796C137.406 67.397 137.671 67.7003 137.876 68.0921C138.081 68.4836 138.182 68.9927 138.182 69.6187V74.5694C138.182 75.0269 138.404 75.2558 138.851 75.2558C138.983 75.2558 139.104 75.2316 139.212 75.1835V76.1416C139.079 76.1655 138.961 76.1834 138.86 76.1957C138.757 76.2073 138.627 76.2136 138.472 76.2136C138.182 76.2136 137.951 76.1743 137.776 76.096C137.601 76.0177 137.466 75.9064 137.37 75.7621C137.272 75.6171 137.21 75.4454 137.179 75.2467C137.149 75.0483 137.135 74.8285 137.135 74.5873H137.098C136.893 74.8889 136.685 75.1568 136.474 75.391C136.265 75.6259 136.029 75.8218 135.77 75.9784C135.511 76.135 135.216 76.2554 134.885 76.3397C134.554 76.4246 134.158 76.4664 133.701 76.4664C133.268 76.4664 132.86 76.4148 132.481 76.3133C132.102 76.2108 131.771 76.0479 131.488 75.8253C131.205 75.602 130.982 75.319 130.821 74.9764C130.657 74.6326 130.577 74.2257 130.577 73.756C130.577 73.1061 130.721 72.597 131.009 72.2294C131.297 71.8625 131.68 71.5823 132.158 71.3889C132.633 71.1968 133.168 71.0613 133.765 70.983C134.361 70.9047 134.967 70.8292 135.581 70.7569C135.821 70.733 136.033 70.7028 136.213 70.667C136.392 70.6305 136.544 70.5677 136.665 70.4767C136.784 70.3865 136.879 70.2629 136.944 70.1063C137.01 69.9505 137.044 69.7451 137.044 69.4923C137.044 69.1068 136.98 68.7908 136.854 68.544C136.727 68.2968 136.553 68.1009 136.33 67.9566C136.108 67.8116 135.848 67.7129 135.554 67.6585C135.259 67.6041 134.942 67.5774 134.605 67.5774C133.883 67.5774 133.291 67.7484 132.834 68.0921C132.377 68.4355 132.136 68.9867 132.111 69.7451H130.973C131.009 69.203 131.123 68.7336 131.317 68.3358Z" fill="#2E42FB"></path><path d="M141.29 66.8903V68.4622H141.344C141.644 67.8846 142.039 67.4324 142.527 67.1076C143.015 66.7818 143.638 66.6196 144.397 66.6196C145.013 66.6196 145.568 66.7702 146.068 67.0711C146.568 67.3727 146.903 67.8302 147.072 68.4446C147.348 67.8302 147.758 67.3727 148.3 67.0711C148.842 66.7702 149.42 66.6196 150.035 66.6196C152.094 66.6196 153.123 67.7101 153.123 69.8901V76.2136H151.986V69.9445C151.986 69.1735 151.824 68.5861 151.498 68.1827C151.172 67.7786 150.601 67.5774 149.782 67.5774C149.287 67.5774 148.878 67.6712 148.554 67.8569C148.228 68.044 147.968 68.294 147.776 68.6075C147.583 68.9207 147.448 69.2785 147.37 69.6819C147.291 70.0856 147.252 70.5041 147.252 70.9377V76.2136H146.114V69.8901C146.114 69.5765 146.081 69.2785 146.015 68.9955C145.949 68.7125 145.84 68.466 145.689 68.255C145.538 68.044 145.337 67.8783 145.084 67.7582C144.831 67.6371 144.525 67.5774 144.164 67.5774C143.681 67.5774 143.262 67.6645 142.907 67.8393C142.552 68.0138 142.262 68.255 142.039 68.5619C141.817 68.8691 141.651 69.2304 141.543 69.6464C141.434 70.0618 141.381 70.5157 141.381 71.0097V76.2136H140.242V66.8903H141.29Z" fill="#2E42FB"></path><path d="M161.535 69.6548C161.396 69.2574 161.2 68.9045 160.948 68.5977C160.695 68.2905 160.387 68.044 160.026 67.8569C159.664 67.6712 159.255 67.5774 158.797 67.5774C158.327 67.5774 157.912 67.6712 157.551 67.8569C157.19 68.044 156.881 68.2905 156.629 68.5977C156.376 68.9045 156.175 69.2606 156.024 69.664C155.872 70.0681 155.774 70.4803 155.726 70.9012H161.759C161.749 70.4676 161.672 70.0519 161.535 69.6548ZM155.897 73.1328C156.011 73.5727 156.196 73.967 156.449 74.3167C156.702 74.6656 157.02 74.9549 157.407 75.1835C157.791 75.4124 158.256 75.5272 158.797 75.5272C159.629 75.5272 160.278 75.3099 160.748 74.8763C161.218 74.443 161.544 73.8644 161.724 73.1419H162.863C162.621 74.2018 162.177 75.0209 161.535 75.5992C160.89 76.1771 159.978 76.4664 158.797 76.4664C158.062 76.4664 157.426 76.3372 156.89 76.0781C156.354 75.8193 155.918 75.464 155.582 75.0118C155.243 74.5607 154.994 74.0361 154.831 73.44C154.669 72.8435 154.587 72.214 154.587 71.5518C154.587 70.9377 154.669 70.3349 154.831 69.7451C154.994 69.1549 155.243 68.6279 155.582 68.1641C155.918 67.7003 156.354 67.3274 156.89 67.0441C157.426 66.7611 158.062 66.6196 158.797 66.6196C159.543 66.6196 160.182 66.7702 160.713 67.0711C161.241 67.3727 161.672 67.767 162.003 68.255C162.334 68.7427 162.573 69.3027 162.717 69.9347C162.863 70.5677 162.922 71.2084 162.899 71.859H155.726C155.726 72.2684 155.783 72.6932 155.897 73.1328Z" fill="#2E42FB"></path><path d="M165.32 66.8903V68.4987H165.356C165.573 67.9327 165.957 67.4777 166.513 67.1343C167.066 66.7917 167.675 66.6196 168.337 66.6196C168.987 66.6196 169.532 66.7042 169.972 66.8724C170.412 67.0416 170.764 67.2793 171.029 67.5865C171.294 67.8934 171.481 68.2701 171.59 68.715C171.699 69.1612 171.752 69.6612 171.752 70.2148V76.2136H170.615V70.3956C170.615 69.9975 170.577 69.6274 170.506 69.2848C170.433 68.9411 170.306 68.643 170.127 68.3902C169.945 68.1374 169.701 67.939 169.395 67.7937C169.087 67.6494 168.704 67.5774 168.247 67.5774C167.789 67.5774 167.381 67.6585 167.027 67.8214C166.671 67.9833 166.37 68.2069 166.125 68.4899C165.877 68.7729 165.683 69.1103 165.546 69.5011C165.407 69.8929 165.332 70.3173 165.32 70.7748V76.2136H164.182V66.8903H165.32Z" fill="#2E42FB"></path><path d="M177.388 66.8903V67.8481H175.492V74.1358C175.492 74.509 175.542 74.8018 175.645 75.0118C175.747 75.2228 176.003 75.3401 176.413 75.3643C176.738 75.3643 177.064 75.3464 177.388 75.3099V76.2676C177.219 76.2676 177.052 76.274 176.882 76.2856C176.713 76.2978 176.546 76.3035 176.377 76.3035C175.619 76.3035 175.088 76.1564 174.787 75.8611C174.486 75.5662 174.34 75.0209 174.353 74.2257V67.8481H172.727V66.8903H174.353V64.09H175.492V66.8903H177.388Z" fill="#2E42FB"></path><path d="M184.011 72.9888C184.125 73.4646 184.304 73.8894 184.552 74.2623C184.799 74.6351 185.114 74.9399 185.501 75.1747C185.885 75.41 186.35 75.5272 186.891 75.5272C187.495 75.5272 188.004 75.41 188.419 75.1747C188.833 74.9399 189.172 74.6351 189.43 74.2623C189.69 73.8894 189.877 73.4646 189.99 72.9888C190.104 72.5124 190.161 72.0342 190.161 71.5518C190.161 71.0705 190.104 70.5916 189.99 70.1151C189.877 69.6398 189.69 69.2153 189.43 68.8417C189.172 68.4685 188.833 68.1641 188.419 67.9292C188.004 67.694 187.495 67.5774 186.891 67.5774C186.35 67.5774 185.885 67.694 185.501 67.9292C185.114 68.1641 184.799 68.4685 184.552 68.8417C184.304 69.2153 184.125 69.6398 184.011 70.1151C183.895 70.5916 183.838 71.0705 183.838 71.5518C183.838 72.0342 183.895 72.5124 184.011 72.9888ZM190.252 76.2136V74.4431H190.217C190.096 74.744 189.917 75.021 189.682 75.2745C189.449 75.5272 189.18 75.7407 188.88 75.9152C188.579 76.09 188.257 76.2252 187.913 76.3221C187.57 76.4183 187.229 76.4664 186.891 76.4664C186.181 76.4664 185.565 76.3372 185.04 76.0781C184.516 75.8194 184.08 75.464 183.729 75.0118C183.38 74.5607 183.122 74.0361 182.953 73.44C182.784 72.8435 182.7 72.214 182.7 71.5518C182.7 70.8896 182.784 70.2605 182.953 69.664C183.122 69.0675 183.38 68.544 183.729 68.0921C184.08 67.6406 184.516 67.2822 185.04 67.0167C185.565 66.7524 186.181 66.6196 186.891 66.6196C187.242 66.6196 187.582 66.6618 187.913 66.746C188.244 66.8307 188.554 66.9599 188.844 67.1344C189.133 67.3095 189.389 67.5234 189.611 67.7758C189.834 68.0289 190.005 68.3242 190.126 68.6609H190.161V63.313H191.301V76.2136H190.252Z" fill="#2E42FB"></path><path d="M199.728 69.6548C199.59 69.2574 199.394 68.9045 199.141 68.5977C198.888 68.2905 198.582 68.044 198.221 67.8569C197.859 67.6712 197.45 67.5774 196.992 67.5774C196.522 67.5774 196.106 67.6712 195.744 67.8569C195.383 68.044 195.077 68.2905 194.824 68.5977C194.571 68.9045 194.368 69.2606 194.219 69.664C194.067 70.0681 193.968 70.4803 193.92 70.9012H199.954C199.942 70.4676 199.867 70.0519 199.728 69.6548ZM194.092 73.1328C194.206 73.5727 194.389 73.967 194.642 74.3167C194.895 74.6656 195.214 74.9549 195.6 75.1835C195.986 75.4124 196.449 75.5272 196.992 75.5272C197.822 75.5272 198.473 75.3099 198.943 74.8763C199.412 74.443 199.737 73.8644 199.919 73.1419H201.057C200.816 74.2018 200.373 75.0209 199.728 75.5992C199.084 76.1771 198.173 76.4664 196.992 76.4664C196.257 76.4664 195.621 76.3372 195.086 76.0781C194.55 75.8193 194.112 75.464 193.775 75.0118C193.439 74.5607 193.188 74.0361 193.026 73.44C192.862 72.8435 192.782 72.214 192.782 71.5518C192.782 70.9377 192.862 70.3349 193.026 69.7451C193.188 69.1549 193.439 68.6279 193.775 68.1641C194.112 67.7003 194.55 67.3274 195.086 67.0441C195.621 66.7611 196.257 66.6196 196.992 66.6196C197.738 66.6196 198.377 66.7702 198.906 67.0711C199.436 67.3727 199.867 67.767 200.198 68.255C200.53 68.7427 200.768 69.3027 200.913 69.9347C201.057 70.5677 201.117 71.2084 201.092 71.859H193.92C193.92 72.2684 193.977 72.6932 194.092 73.1328Z" fill="#2E42FB"></path><path d="M212.349 75.166C212.808 75.166 213.241 75.1266 213.65 75.0484C214.06 74.9701 214.421 74.8286 214.734 74.6239C215.048 74.4188 215.295 74.1446 215.475 73.8013C215.656 73.4586 215.746 73.0278 215.746 72.5096C215.746 71.6786 215.453 71.0554 214.869 70.6397C214.285 70.224 213.445 70.0165 212.349 70.0165H208.123V75.166H212.349ZM212.349 68.9688C212.844 68.9688 213.271 68.9109 213.632 68.7971C213.994 68.682 214.295 68.5257 214.536 68.327C214.777 68.1287 214.957 67.8962 215.078 67.6308C215.199 67.3664 215.258 67.0834 215.258 66.7819C215.258 65.1679 214.289 64.3614 212.349 64.3614H208.123V68.9688H212.349ZM212.349 63.313C212.892 63.313 213.413 63.3647 213.912 63.4668C214.412 63.5693 214.852 63.7438 215.231 63.9903C215.61 64.2378 215.914 64.5626 216.144 64.9656C216.372 65.3701 216.488 65.8729 216.488 66.4746C216.488 66.812 216.433 67.1403 216.324 67.4598C216.215 67.7786 216.062 68.0679 215.863 68.327C215.665 68.5861 215.43 68.8059 215.16 68.9867C214.887 69.1672 214.583 69.2936 214.246 69.3659V69.4024C215.078 69.5098 215.74 69.8511 216.235 70.4223C216.728 70.9946 216.975 71.7024 216.975 72.5461C216.975 72.7508 216.956 72.9822 216.92 73.2413C216.885 73.5004 216.812 73.7655 216.703 74.0362C216.595 74.3075 216.438 74.5758 216.235 74.8398C216.029 75.1052 215.756 75.3377 215.412 75.536C215.069 75.7347 214.647 75.8976 214.147 76.024C213.646 76.1504 213.048 76.2136 212.349 76.2136H206.892V63.313H212.349Z" fill="#2E42FB"></path><path d="M224.437 71.1185C224.364 71.2509 224.227 71.3471 224.022 71.4078C223.817 71.4682 223.635 71.51 223.479 71.5339C222.996 71.6188 222.5 71.6936 221.989 71.7603C221.476 71.826 221.01 71.9257 220.588 72.0574C220.165 72.1911 219.82 72.3807 219.55 72.6272C219.279 72.8737 219.142 73.2262 219.142 73.684C219.142 73.9729 219.199 74.2296 219.315 74.4518C219.429 74.6744 219.582 74.8675 219.776 75.0297C219.968 75.1926 220.191 75.3162 220.443 75.4008C220.696 75.4844 220.956 75.5272 221.221 75.5272C221.654 75.5272 222.071 75.4605 222.468 75.3278C222.865 75.1961 223.212 75.003 223.505 74.7503C223.801 74.4971 224.036 74.1903 224.21 73.829C224.385 73.4674 224.472 73.058 224.472 72.5998V71.1185H224.437ZM218.745 68.3358C218.937 67.939 219.199 67.6129 219.532 67.3604C219.863 67.1076 220.252 66.9205 220.696 66.8004C221.142 66.6804 221.636 66.6196 222.178 66.6196C222.587 66.6196 222.996 66.659 223.407 66.7372C223.817 66.8155 224.184 66.9623 224.509 67.1796C224.834 67.397 225.099 67.7003 225.303 68.0921C225.508 68.4836 225.611 68.9927 225.611 69.6187V74.5694C225.611 75.0269 225.834 75.2558 226.279 75.2558C226.413 75.2558 226.532 75.2316 226.641 75.1835V76.1416C226.509 76.1655 226.391 76.1834 226.288 76.1957C226.187 76.2073 226.057 76.2136 225.9 76.2136C225.611 76.2136 225.378 76.1743 225.204 76.096C225.03 76.0177 224.894 75.9064 224.798 75.7621C224.702 75.6171 224.638 75.4454 224.608 75.2467C224.579 75.0483 224.563 74.8285 224.563 74.5873H224.527C224.322 74.8889 224.114 75.1568 223.904 75.391C223.692 75.6259 223.457 75.8218 223.199 75.9784C222.939 76.135 222.646 76.2554 222.315 76.3397C221.981 76.4246 221.588 76.4664 221.13 76.4664C220.696 76.4664 220.29 76.4148 219.911 76.3133C219.532 76.2108 219.199 76.0479 218.918 75.8253C218.633 75.602 218.41 75.319 218.248 74.9764C218.087 74.6326 218.005 74.2257 218.005 73.756C218.005 73.1061 218.148 72.597 218.439 72.2294C218.727 71.8625 219.11 71.5823 219.585 71.3889C220.061 71.1968 220.597 71.0613 221.193 70.983C221.789 70.9047 222.395 70.8292 223.009 70.7569C223.251 70.733 223.461 70.7028 223.643 70.667C223.822 70.6305 223.974 70.5677 224.093 70.4767C224.214 70.3865 224.307 70.2629 224.374 70.1063C224.44 69.9505 224.472 69.7451 224.472 69.4923C224.472 69.1068 224.41 68.7908 224.283 68.544C224.157 68.2968 223.983 68.1009 223.758 67.9566C223.536 67.8116 223.278 67.7129 222.982 67.6585C222.687 67.6041 222.372 67.5774 222.033 67.5774C221.31 67.5774 220.721 67.7484 220.264 68.0921C219.804 68.4355 219.564 68.9867 219.541 69.7451H218.402C218.439 69.203 218.553 68.7336 218.745 68.3358Z" fill="#2E42FB"></path><path d="M228.7 66.8904V69.0763H228.736C229.026 68.3182 229.473 67.7344 230.082 67.324C230.691 66.9153 231.417 66.7281 232.259 66.764V67.9026C231.741 67.8783 231.271 67.9478 230.851 68.1101C230.429 68.2726 230.064 68.505 229.758 68.8059C229.45 69.1068 229.211 69.4653 229.044 69.881C228.875 70.296 228.791 70.751 228.791 71.245V76.2136H227.652V66.8904H228.7Z" fill="#2E42FB"></path><path d="M238.511 68.1729C238.089 67.7758 237.498 67.5774 236.74 67.5774C236.199 67.5774 235.721 67.6915 235.312 67.9201C234.903 68.149 234.562 68.4506 234.292 68.8238C234.021 69.1977 233.817 69.6222 233.678 70.0976C233.539 70.5736 233.469 71.0582 233.469 71.5518C233.469 72.0458 233.539 72.531 233.678 73.0064C233.817 73.4825 234.021 73.9073 234.292 74.2801C234.562 74.6541 234.903 74.9549 235.312 75.1835C235.721 75.4124 236.199 75.5272 236.74 75.5272C237.089 75.5272 237.42 75.4605 237.734 75.3278C238.047 75.1961 238.324 75.0118 238.565 74.7769C238.805 74.5417 239.004 74.2622 239.161 73.9364C239.318 73.6117 239.414 73.2564 239.451 72.8712H240.589C240.432 74.0035 240.016 74.8854 239.343 75.5184C238.668 76.1504 237.799 76.4664 236.74 76.4664C236.03 76.4664 235.399 76.3372 234.853 76.0781C234.304 75.8193 233.843 75.4668 233.469 75.0209C233.096 74.5758 232.813 74.054 232.621 73.4586C232.428 72.8621 232.332 72.2266 232.332 71.5518C232.332 70.877 232.428 70.2426 232.621 69.6464C232.813 69.0499 233.096 68.5289 233.469 68.083C233.843 67.6371 234.304 67.2821 234.853 67.0167C235.399 66.7523 236.03 66.6196 236.74 66.6196C237.74 66.6196 238.586 66.8851 239.279 67.4145C239.971 67.9443 240.384 68.7455 240.516 69.8181H239.378C239.221 69.1194 238.933 68.571 238.511 68.1729Z" fill="#2E42FB"></path><path d="M248.422 69.6548C248.283 69.2574 248.087 68.9045 247.834 68.5977C247.581 68.2905 247.273 68.044 246.912 67.8569C246.551 67.6712 246.141 67.5774 245.684 67.5774C245.214 67.5774 244.799 67.6712 244.438 67.8569C244.076 68.044 243.768 68.2905 243.515 68.5977C243.263 68.9045 243.061 69.2606 242.91 69.664C242.759 70.0681 242.661 70.4803 242.613 70.9012H248.646C248.635 70.4676 248.559 70.0519 248.422 69.6548ZM242.784 73.1328C242.898 73.5727 243.083 73.967 243.336 74.3167C243.588 74.6656 243.907 74.9549 244.293 75.1835C244.678 75.4124 245.143 75.5272 245.684 75.5272C246.515 75.5272 247.165 75.3099 247.635 74.8763C248.105 74.443 248.431 73.8644 248.611 73.1419H249.75C249.508 74.2018 249.065 75.0209 248.422 75.5992C247.778 76.1771 246.864 76.4664 245.684 76.4664C244.948 76.4664 244.313 76.3372 243.777 76.0781C243.241 75.8193 242.805 75.464 242.469 75.0118C242.131 74.5607 241.881 74.0361 241.717 73.44C241.555 72.8435 241.474 72.214 241.474 71.5518C241.474 70.9377 241.555 70.3349 241.717 69.7451C241.881 69.1549 242.131 68.6279 242.469 68.1641C242.805 67.7003 243.241 67.3274 243.777 67.0441C244.313 66.7611 244.948 66.6196 245.684 66.6196C246.43 66.6196 247.069 66.7702 247.599 67.0711C248.128 67.3727 248.559 67.767 248.89 68.255C249.221 68.7427 249.46 69.3027 249.604 69.9347C249.75 70.5677 249.809 71.2084 249.785 71.859H242.613C242.613 72.2684 242.67 72.6932 242.784 73.1328Z" fill="#2E42FB"></path><path d="M252.242 63.313H251.103V76.2136H252.242V63.313Z" fill="#2E42FB"></path><path d="M256.723 67.9201C256.314 68.149 255.974 68.4506 255.701 68.8238C255.431 69.1977 255.226 69.6222 255.087 70.0976C254.95 70.5736 254.881 71.0582 254.881 71.5518C254.881 72.0458 254.95 72.531 255.087 73.0064C255.226 73.4825 255.431 73.9073 255.701 74.2801C255.974 74.6541 256.314 74.9549 256.723 75.1835C257.132 75.4124 257.608 75.5272 258.151 75.5272C258.692 75.5272 259.167 75.4124 259.577 75.1835C259.986 74.9549 260.328 74.6541 260.598 74.2801C260.87 73.9073 261.074 73.4825 261.213 73.0064C261.352 72.531 261.421 72.0458 261.421 71.5518C261.421 71.0582 261.352 70.5736 261.213 70.0976C261.074 69.6222 260.87 69.1977 260.598 68.8238C260.328 68.4506 259.986 68.149 259.577 67.9201C259.167 67.6915 258.692 67.5774 258.151 67.5774C257.608 67.5774 257.132 67.6915 256.723 67.9201ZM260.038 67.0167C260.586 67.2821 261.048 67.6371 261.421 68.083C261.793 68.5289 262.076 69.0499 262.27 69.6464C262.463 70.2426 262.559 70.877 262.559 71.5518C262.559 72.2266 262.463 72.8621 262.27 73.4586C262.076 74.054 261.793 74.5758 261.421 75.0209C261.048 75.4668 260.586 75.8193 260.038 76.0781C259.49 76.3372 258.861 76.4664 258.151 76.4664C257.439 76.4664 256.81 76.3372 256.262 76.0781C255.714 75.8193 255.253 75.4668 254.881 75.0209C254.507 74.5758 254.224 74.054 254.031 73.4586C253.837 72.8621 253.741 72.2266 253.741 71.5518C253.741 70.877 253.837 70.2426 254.031 69.6464C254.224 69.0499 254.507 68.5289 254.881 68.083C255.253 67.6371 255.714 67.2821 256.262 67.0167C256.81 66.7523 257.439 66.6196 258.151 66.6196C258.861 66.6196 259.49 66.7523 260.038 67.0167Z" fill="#2E42FB"></path><path d="M265.142 66.8903V68.4987H265.179C265.397 67.9327 265.781 67.4777 266.335 67.1343C266.889 66.7917 267.497 66.6196 268.16 66.6196C268.811 66.6196 269.356 66.7042 269.796 66.8724C270.235 67.0416 270.588 67.2793 270.853 67.5865C271.117 67.8934 271.303 68.2701 271.412 68.715C271.521 69.1612 271.574 69.6612 271.574 70.2148V76.2136H270.436V70.3956C270.436 69.9975 270.401 69.6274 270.328 69.2848C270.256 68.9411 270.13 68.643 269.948 68.3902C269.769 68.1374 269.525 67.939 269.217 67.7937C268.909 67.6494 268.528 67.5774 268.07 67.5774C267.611 67.5774 267.205 67.6585 266.851 67.8214C266.495 67.9833 266.194 68.2069 265.947 68.4899C265.699 68.7729 265.507 69.1103 265.368 69.5011C265.229 69.8929 265.154 70.3173 265.142 70.7748V76.2136H264.004V66.8903H265.142Z" fill="#2E42FB"></path><path d="M279.434 71.1185C279.361 71.2509 279.224 71.3471 279.019 71.4078C278.814 71.4682 278.633 71.51 278.476 71.5339C277.993 71.6188 277.497 71.6936 276.986 71.7603C276.473 71.826 276.007 71.9257 275.585 72.0574C275.163 72.1911 274.818 72.3807 274.547 72.6272C274.277 72.8737 274.139 73.2262 274.139 73.684C274.139 73.9729 274.196 74.2296 274.312 74.4518C274.426 74.6744 274.579 74.8675 274.773 75.0297C274.965 75.1926 275.188 75.3162 275.441 75.4008C275.694 75.4844 275.954 75.5272 276.219 75.5272C276.651 75.5272 277.068 75.4605 277.465 75.3278C277.862 75.1961 278.209 75.003 278.503 74.7503C278.798 74.4971 279.033 74.1903 279.207 73.829C279.382 73.4674 279.469 73.058 279.469 72.5998V71.1185H279.434ZM273.742 68.3358C273.935 67.939 274.196 67.6129 274.529 67.3604C274.861 67.1076 275.249 66.9205 275.694 66.8004C276.139 66.6804 276.633 66.6196 277.175 66.6196C277.584 66.6196 277.993 66.659 278.405 66.7372C278.814 66.8155 279.181 66.9623 279.507 67.1796C279.831 67.397 280.096 67.7003 280.301 68.0921C280.505 68.4836 280.609 68.9927 280.609 69.6187V74.5694C280.609 75.0269 280.831 75.2558 281.276 75.2558C281.41 75.2558 281.529 75.2316 281.638 75.1835V76.1416C281.506 76.1655 281.389 76.1834 281.285 76.1957C281.184 76.2073 281.054 76.2136 280.897 76.2136C280.609 76.2136 280.376 76.1743 280.201 76.096C280.027 76.0177 279.891 75.9064 279.795 75.7621C279.699 75.6171 279.635 75.4454 279.605 75.2467C279.576 75.0483 279.56 74.8285 279.56 74.5873H279.525C279.32 74.8889 279.112 75.1568 278.901 75.391C278.69 75.6259 278.455 75.8218 278.197 75.9784C277.937 76.135 277.643 76.2554 277.312 76.3397C276.979 76.4246 276.586 76.4664 276.128 76.4664C275.694 76.4664 275.288 76.4148 274.908 76.3133C274.529 76.2108 274.196 76.0479 273.915 75.8253C273.63 75.602 273.408 75.319 273.246 74.9764C273.084 74.6326 273.002 74.2257 273.002 73.756C273.002 73.1061 273.146 72.597 273.436 72.2294C273.724 71.8625 274.107 71.5823 274.583 71.3889C275.058 71.1968 275.594 71.0613 276.19 70.983C276.787 70.9047 277.392 70.8292 278.006 70.7569C278.248 70.733 278.458 70.7028 278.64 70.667C278.82 70.6305 278.971 70.5677 279.09 70.4767C279.211 70.3865 279.304 70.2629 279.371 70.1063C279.437 69.9505 279.469 69.7451 279.469 69.4923C279.469 69.1068 279.407 68.7908 279.281 68.544C279.154 68.2968 278.98 68.1009 278.755 67.9566C278.533 67.8116 278.275 67.7129 277.979 67.6585C277.684 67.6041 277.369 67.5774 277.03 67.5774C276.308 67.5774 275.718 67.7484 275.261 68.0921C274.802 68.4355 274.561 68.9867 274.538 69.7451H273.399C273.436 69.203 273.55 68.7336 273.742 68.3358Z" fill="#2E42FB"></path><path d="M57.56 55.1607C56.6767 55.1607 55.8411 55.6381 55.4531 56.4309C52.5742 62.3345 46.5283 66.436 39.55 66.436C30.2664 66.436 21.8345 58.7987 21.7608 48.8733C21.7534 48.0636 22.3861 47.3903 23.1953 47.3903H73.6822C75.9278 47.3903 77.7581 45.6422 77.9199 43.4025C77.9751 42.6308 78.0067 41.8412 78.0067 41C78.0067 18.3562 60.9835 0 39.2849 0C17.5887 0 0 18.3562 0 41C0 63.6441 17.5887 82 39.2849 82C55.1902 82 68.8428 72.1132 75.0175 57.9245C75.5841 56.6237 74.6242 55.1607 73.2034 55.1607H57.56ZM39.55 15.2434C49.1763 15.2434 57.1482 22.4858 57.7746 33.1583C57.8191 33.8998 57.1988 34.5216 56.4548 34.5216H22.4819C21.8215 34.5216 21.2608 33.9816 21.2763 33.3226C21.514 23.1662 29.8977 15.2434 39.55 15.2434Z" fill="#2E42FB"></path></svg> 